<svg width="126" height="30" viewBox="0 0 126 30" fill="none" xmlns="http://www.w3.org/2000/svg">
<path d="M88.47 10.0999L85.14 3.8999L85.01 3.6499L84.87 3.8999L81.54 10.0999L78.21 16.2999L78.07 16.5499H91.95L91.81 16.2999L88.48 10.0999H88.47ZM85 4.3299L88.2 10.2799L91.4 16.2199H78.61L81.81 10.2799L85.01 4.3299H85Z" fill="#00002F"/>
<path d="M88.47 10.0999L85.14 3.8999L85.01 3.6499L84.87 3.8999L81.54 10.0999L78.21 16.2999L78.07 16.5499H91.95L91.81 16.2999L88.48 10.0999H88.47ZM85 4.3299L88.2 10.2799L91.4 16.2199H78.61L81.81 10.2799L85.01 4.3299H85Z" stroke="#00002F" stroke-width="1.67" stroke-miterlimit="10"/>
<mask id="mask0_509_1914" style="mask-type:luminance" maskUnits="userSpaceOnUse" x="0" y="0" width="126" height="30">
<path d="M125.09 0H0V29.8H125.09V0Z" fill="white"/>
</mask>
<g mask="url(#mask0_509_1914)">
<path d="M1.03 17.23V4.47998H7.58C8.42 4.47998 9.12 4.61998 9.68 4.88998C10.24 5.15998 10.67 5.53998 10.95 6.00998C11.23 6.47998 11.38 7.00998 11.38 7.58998C11.38 8.35998 11.18 8.96998 10.78 9.40998C10.38 9.84998 9.92 10.15 9.4 10.3V10.46C9.73 10.53 10.1 10.68 10.49 10.91C10.89 11.14 11.22 11.47 11.51 11.9C11.79 12.33 11.93 12.89 11.93 13.58C11.93 14.19 11.79 14.77 11.5 15.33C11.21 15.89 10.76 16.34 10.15 16.7C9.54 17.06 8.72 17.23 7.71 17.23H1.03ZM6.89 7.21998H4.34V9.43998H6.89C7.33 9.43998 7.65 9.33998 7.87 9.13998C8.09 8.93998 8.2 8.66998 8.2 8.31998C8.2 7.96998 8.09 7.71998 7.87 7.51998C7.65 7.31998 7.32 7.21998 6.89 7.21998ZM7.13 11.91H4.34V14.49H7.13C7.63 14.49 8.01 14.37 8.25 14.13C8.49 13.89 8.61 13.57 8.61 13.18C8.61 12.79 8.49 12.48 8.25 12.25C8.01 12.02 7.64 11.91 7.13 11.91Z" fill="#00002F"/>
<path d="M17.1 17.23V4.47998H22.72C23.67 4.47998 24.51 4.63998 25.23 4.94998C25.95 5.25998 26.52 5.71998 26.92 6.31998C27.32 6.91998 27.52 7.66998 27.52 8.54998C27.52 9.42998 27.32 10.14 26.93 10.75C26.53 11.35 25.99 11.81 25.3 12.12L27.78 17.24H24.15L22 12.62H20.42V17.24H17.11L17.1 17.23ZM22.67 7.32998H20.41V9.97998H22.67C23.13 9.97998 23.5 9.85998 23.79 9.63998C24.08 9.40998 24.22 9.07998 24.22 8.65998C24.22 8.23998 24.08 7.88998 23.79 7.66998C23.5 7.44998 23.13 7.32998 22.67 7.32998Z" fill="#00002F"/>
<path d="M36.41 17.23V12.98L31.91 4.48999H35.53L38.06 9.58999L40.57 4.48999H44.2L39.7 12.98V17.23H36.39H36.41Z" fill="#00002F"/>
<path d="M52.46 17.23V7.33998H48.6V4.47998H59.62V7.33998H55.76V17.23H52.45H52.46Z" fill="#00002F"/>
<path d="M64.71 17.23V4.47998H73.94V7.33998H68.01V9.40998H73.16V12.13H68.01V14.37H74.02V17.23H64.7H64.71Z" fill="#00002F"/>
<path d="M96.52 17.23V4.47998H102.14C103.09 4.47998 103.93 4.63998 104.65 4.94998C105.37 5.25998 105.94 5.71998 106.34 6.31998C106.74 6.91998 106.94 7.66998 106.94 8.54998C106.94 9.42998 106.74 10.14 106.35 10.75C105.95 11.35 105.41 11.81 104.72 12.12L107.2 17.24H103.57L101.42 12.62H99.84V17.24H96.53L96.52 17.23ZM102.09 7.32998H99.83V9.97998H102.09C102.55 9.97998 102.92 9.85998 103.21 9.63998C103.5 9.40998 103.64 9.07998 103.64 8.65998C103.64 8.23998 103.5 7.88998 103.21 7.66998C102.92 7.44998 102.55 7.32998 102.09 7.32998Z" fill="#00002F"/>
<path d="M112.71 17.23V4.47998H116.02V9.57998L119.93 4.47998H123.93L119.02 10.56L124.08 17.23H119.93L116.02 11.91V17.23H112.71Z" fill="#00002F"/>
</g>
</svg>
