<svg width="296" height="119" viewBox="0 0 296 119" fill="none" xmlns="http://www.w3.org/2000/svg">
<g clip-path="url(#clip0_509_481)">
<path d="M0.929993 100.04V69.5601H16.58C18.58 69.5601 20.26 69.8901 21.61 70.5501C22.96 71.2101 23.97 72.1001 24.66 73.2301C25.35 74.3601 25.69 75.6201 25.69 77.0201C25.69 78.8601 25.21 80.3101 24.25 81.3601C23.29 82.4201 22.19 83.1201 20.95 83.4801V83.8501C21.75 84.0201 22.62 84.3701 23.57 84.9201C24.52 85.4701 25.33 86.2601 26 87.2901C26.67 88.3201 27.01 89.6601 27.01 91.3101C27.01 92.7701 26.67 94.1601 25.98 95.4901C25.29 96.8201 24.22 97.9101 22.75 98.7601C21.28 99.6101 19.34 100.04 16.92 100.04H0.929993ZM14.93 76.1101H8.82999V81.4201H14.93C15.97 81.4201 16.76 81.1801 17.28 80.7001C17.8 80.2201 18.06 79.5701 18.06 78.7401C18.06 77.9101 17.8 77.3101 17.28 76.8201C16.76 76.3301 15.98 76.1001 14.93 76.1001V76.1101ZM15.51 87.3101H8.83999V93.4901H15.51C16.72 93.4901 17.61 93.2001 18.19 92.6201C18.77 92.0401 19.06 91.2901 19.06 90.3501C19.06 89.4101 18.77 88.6801 18.19 88.1301C17.61 87.5801 16.72 87.3101 15.51 87.3101Z" fill="#00002F"/>
<path d="M39.36 100.04V69.5601H52.79C55.07 69.5601 57.07 69.9301 58.8 70.6701C60.53 71.4101 61.88 72.5001 62.84 73.9401C63.8 75.3801 64.28 77.1601 64.28 79.2701C64.28 81.3801 63.81 83.0801 62.86 84.5201C61.91 85.9601 60.62 87.0501 58.97 87.7901L64.9 100.02H56.21L51.06 88.9801H47.27V100.02H39.36V100.04ZM52.66 76.3601H47.26V82.7001H52.66C53.76 82.7001 54.65 82.4301 55.34 81.8801C56.03 81.3301 56.37 80.5501 56.37 79.5301C56.37 78.5101 56.03 77.7001 55.34 77.1601C54.65 76.6201 53.76 76.3601 52.66 76.3601Z" fill="#00002F"/>
<path d="M85.53 100.04V89.8701L74.78 69.5601H83.43L89.48 81.7501L95.49 69.5601H104.18L93.43 89.8701V100.04H85.52H85.53Z" fill="#00002F"/>
<path d="M123.92 100.04V76.4001H114.69V69.5601H141.05V76.4001H131.82V100.04H123.91H123.92Z" fill="#00002F"/>
<path d="M153.2 100.04V69.5601H175.28V76.4001H161.11V81.3401H173.43V87.8501H161.11V93.2001H175.49V100.04H153.21H153.2Z" fill="#00002F"/>
<path d="M229.28 100.04V69.5601H242.71C244.99 69.5601 246.99 69.9301 248.72 70.6701C250.45 71.4101 251.8 72.5001 252.76 73.9401C253.72 75.3801 254.2 77.1601 254.2 79.2701C254.2 81.3801 253.73 83.0801 252.78 84.5201C251.83 85.9601 250.54 87.0501 248.89 87.7901L254.82 100.02H246.13L240.98 88.9801H237.19V100.02H229.28V100.04ZM242.58 76.3601H237.18V82.7001H242.58C243.68 82.7001 244.57 82.4301 245.26 81.8801C245.95 81.3301 246.29 80.5501 246.29 79.5301C246.29 78.5101 245.95 77.7001 245.26 77.1601C244.57 76.6201 243.68 76.3601 242.58 76.3601Z" fill="#00002F"/>
<path d="M268.04 100.04V69.5601H275.95V81.7501L285.3 69.5601H294.86L283.12 84.1001L295.23 100.04H285.3L275.95 87.3101V100.04H268.04Z" fill="#00002F"/>
<path d="M210.02 83.0001L202.05 68.1701L201.73 67.5701L201.41 68.1701L193.44 83.0001L185.47 97.8201L185.14 98.4301H218.32L217.99 97.8201L210.02 83.0001ZM201.72 97.6301H186.43L194.08 83.4101L201.73 69.1901L209.38 83.4101L217.03 97.6301H201.74H201.72Z" fill="#00002F"/>
<path d="M139.92 53.89C137.25 53.93 134.58 53.99 131.91 54.1C127.54 54.28 123.16 54.52 118.79 55C123.16 55.48 127.54 55.72 131.91 55.9C135.37 56.03 138.84 56.11 142.3 56.13H147.75C151.22 56.1 154.68 56.03 158.15 55.9C162.52 55.72 166.9 55.48 171.27 55C166.9 54.53 162.52 54.28 158.15 54.11C155.48 54.01 152.81 53.94 150.14 53.9C149.24 53.89 148.8 52.81 149.42 52.17C151.28 50.26 153.12 48.32 154.94 46.36C157.91 43.14 160.83 39.88 163.59 36.45C160.16 39.21 156.9 42.13 153.68 45.09C151.73 46.9 149.8 48.73 147.89 50.58C147.24 51.21 146.16 50.76 146.16 49.85C146.14 42.4 146.05 34.94 145.92 27.49C145.75 18.33 145.51 9.17 145.03 0C144.56 9.16 144.31 18.33 144.14 27.49C144 34.94 143.92 42.4 143.9 49.85C143.9 50.75 142.82 51.2 142.17 50.58C140.26 48.73 138.34 46.9 136.39 45.09C133.17 42.12 129.91 39.2 126.48 36.45C129.24 39.88 132.15 43.14 135.12 46.36C136.94 48.32 138.78 50.25 140.64 52.17C141.27 52.81 140.82 53.89 139.92 53.9V53.89Z" fill="#00002F"/>
<path d="M0 118.7V112.78H4.08V113.85H1.23V115.18H3.71V116.21H1.23V117.63H4.12V118.7H0Z" fill="#00002F"/>
<path d="M10.34 118.78C9.90999 118.78 9.50999 118.7 9.13999 118.53C8.76999 118.36 8.47999 118.11 8.25999 117.76C8.03999 117.41 7.92999 116.96 7.92999 116.41V112.78H9.15999V116.41C9.15999 116.75 9.25999 117.04 9.44999 117.27C9.63999 117.5 9.93999 117.62 10.34 117.62C10.74 117.62 11.03 117.5 11.22 117.27C11.41 117.04 11.5 116.75 11.5 116.41V112.78H12.74V116.41C12.74 116.96 12.63 117.42 12.41 117.76C12.19 118.1 11.89 118.36 11.53 118.53C11.17 118.7 10.76 118.78 10.34 118.78Z" fill="#00002F"/>
<path d="M16.64 118.7V112.78H19.04C19.48 112.78 19.85 112.86 20.16 113.01C20.47 113.17 20.71 113.38 20.88 113.65C21.05 113.92 21.13 114.24 21.13 114.59C21.13 114.98 21.03 115.32 20.83 115.61C20.63 115.9 20.35 116.11 19.99 116.25L21.28 118.7H19.91L18.73 116.42H17.86V118.7H16.63H16.64ZM19.02 113.85H17.87V115.42H19.02C19.29 115.42 19.5 115.35 19.66 115.2C19.82 115.05 19.89 114.87 19.89 114.65C19.89 114.43 19.81 114.24 19.66 114.09C19.51 113.94 19.29 113.86 19.02 113.86V113.85Z" fill="#00002F"/>
<path d="M27.65 118.78C27.16 118.78 26.73 118.69 26.35 118.52C25.98 118.35 25.66 118.11 25.41 117.82C25.16 117.53 24.97 117.2 24.84 116.84C24.72 116.48 24.65 116.11 24.65 115.73C24.65 115.35 24.71 114.98 24.84 114.62C24.97 114.26 25.15 113.94 25.41 113.65C25.66 113.36 25.98 113.13 26.35 112.96C26.72 112.79 27.16 112.7 27.65 112.7C28.14 112.7 28.58 112.79 28.95 112.96C29.32 113.13 29.64 113.36 29.89 113.65C30.14 113.94 30.33 114.26 30.45 114.62C30.57 114.98 30.64 115.35 30.64 115.73C30.64 116.11 30.58 116.48 30.45 116.84C30.32 117.2 30.14 117.53 29.89 117.82C29.64 118.11 29.33 118.34 28.95 118.52C28.58 118.69 28.14 118.78 27.65 118.78ZM27.65 117.67C28.02 117.67 28.34 117.58 28.59 117.39C28.85 117.2 29.04 116.96 29.17 116.67C29.3 116.38 29.36 116.06 29.36 115.74C29.36 115.42 29.3 115.11 29.17 114.81C29.04 114.52 28.85 114.28 28.59 114.09C28.33 113.9 28.02 113.81 27.65 113.81C27.28 113.81 26.96 113.9 26.71 114.09C26.46 114.28 26.27 114.52 26.14 114.81C26.01 115.1 25.95 115.41 25.95 115.74C25.95 116.07 26.01 116.38 26.14 116.67C26.27 116.97 26.46 117.21 26.71 117.39C26.96 117.58 27.28 117.67 27.65 117.67Z" fill="#00002F"/>
<path d="M34.3 118.7V112.78H36.74C37.23 112.78 37.63 112.88 37.95 113.07C38.27 113.26 38.52 113.51 38.68 113.81C38.84 114.11 38.92 114.42 38.92 114.75C38.92 115.08 38.84 115.41 38.68 115.71C38.52 116.01 38.27 116.26 37.95 116.45C37.63 116.64 37.22 116.74 36.74 116.74H35.53V118.71H34.3V118.7ZM36.74 113.86H35.53V115.66H36.74C36.95 115.66 37.12 115.62 37.26 115.53C37.4 115.44 37.5 115.33 37.58 115.19C37.65 115.05 37.69 114.91 37.69 114.75C37.69 114.59 37.65 114.46 37.58 114.32C37.51 114.18 37.4 114.07 37.26 113.98C37.12 113.89 36.95 113.85 36.74 113.85V113.86Z" fill="#00002F"/>
<path d="M41.62 118.7L43.64 112.78H45.28L47.3 118.7H46L45.62 117.54H43.3L42.92 118.7H41.62ZM43.65 116.47H45.28L44.46 114L43.64 116.47H43.65Z" fill="#00002F"/>
<path d="M52.9 118.78C52.52 118.78 52.19 118.73 51.92 118.64C51.65 118.55 51.43 118.43 51.25 118.28C51.07 118.13 50.93 117.98 50.82 117.82C50.71 117.66 50.63 117.5 50.58 117.36C50.53 117.22 50.49 117.05 50.46 116.86H51.71C51.76 117.04 51.82 117.19 51.9 117.31C51.98 117.43 52.1 117.53 52.27 117.62C52.44 117.71 52.66 117.75 52.94 117.75C53.29 117.75 53.54 117.68 53.71 117.53C53.88 117.38 53.96 117.21 53.96 117.01C53.96 116.83 53.9 116.68 53.77 116.58C53.64 116.48 53.45 116.39 53.19 116.34L52.4 116.19C52.08 116.13 51.78 116.04 51.51 115.91C51.24 115.78 51.01 115.6 50.84 115.38C50.67 115.15 50.58 114.86 50.58 114.5C50.58 114.14 50.67 113.82 50.85 113.55C51.03 113.28 51.29 113.07 51.61 112.93C51.94 112.78 52.32 112.71 52.77 112.71C53.19 112.71 53.53 112.77 53.81 112.89C54.08 113.01 54.3 113.16 54.47 113.33C54.63 113.5 54.75 113.68 54.83 113.85C54.91 114.03 54.97 114.23 55.02 114.47H53.8C53.76 114.32 53.71 114.2 53.64 114.1C53.57 114 53.47 113.92 53.32 113.84C53.18 113.77 52.99 113.73 52.74 113.73C52.4 113.73 52.16 113.8 52.01 113.95C51.86 114.1 51.79 114.26 51.79 114.43C51.79 114.6 51.86 114.74 52.01 114.84C52.16 114.94 52.35 115.01 52.59 115.06L53.43 115.23C53.75 115.29 54.04 115.39 54.31 115.53C54.58 115.67 54.79 115.85 54.95 116.09C55.11 116.32 55.19 116.61 55.19 116.95C55.19 117.29 55.1 117.62 54.93 117.9C54.75 118.18 54.49 118.4 54.15 118.56C53.81 118.72 53.39 118.8 52.89 118.8L52.9 118.78Z" fill="#00002F"/>
<path d="M63.46 118.7V112.78H65.9C66.39 112.78 66.79 112.88 67.11 113.07C67.43 113.26 67.68 113.51 67.84 113.81C68 114.11 68.08 114.42 68.08 114.75C68.08 115.08 68 115.41 67.84 115.71C67.68 116.01 67.43 116.26 67.11 116.45C66.79 116.64 66.38 116.74 65.9 116.74H64.69V118.71H63.46V118.7ZM65.9 113.86H64.69V115.66H65.9C66.11 115.66 66.28 115.62 66.42 115.53C66.56 115.44 66.66 115.33 66.74 115.19C66.81 115.05 66.85 114.91 66.85 114.75C66.85 114.59 66.81 114.46 66.74 114.32C66.67 114.18 66.56 114.07 66.42 113.98C66.28 113.89 66.11 113.85 65.9 113.85V113.86Z" fill="#00002F"/>
<path d="M74.46 118.78C73.97 118.78 73.54 118.69 73.16 118.52C72.79 118.35 72.47 118.11 72.22 117.82C71.97 117.53 71.78 117.2 71.65 116.84C71.53 116.48 71.46 116.11 71.46 115.73C71.46 115.35 71.52 114.98 71.65 114.62C71.78 114.26 71.96 113.94 72.22 113.65C72.47 113.36 72.79 113.13 73.16 112.96C73.53 112.79 73.97 112.7 74.46 112.7C74.95 112.7 75.39 112.79 75.76 112.96C76.13 113.13 76.45 113.36 76.7 113.65C76.95 113.94 77.14 114.26 77.26 114.62C77.38 114.98 77.45 115.35 77.45 115.73C77.45 116.11 77.39 116.48 77.26 116.84C77.13 117.2 76.95 117.53 76.7 117.82C76.45 118.11 76.14 118.34 75.76 118.52C75.39 118.69 74.95 118.78 74.46 118.78ZM74.46 117.67C74.83 117.67 75.15 117.58 75.4 117.39C75.66 117.2 75.85 116.96 75.98 116.67C76.11 116.38 76.17 116.06 76.17 115.74C76.17 115.42 76.11 115.11 75.98 114.81C75.85 114.52 75.66 114.28 75.4 114.09C75.14 113.9 74.83 113.81 74.46 113.81C74.09 113.81 73.77 113.9 73.52 114.09C73.27 114.28 73.08 114.52 72.95 114.81C72.82 115.1 72.76 115.41 72.76 115.74C72.76 116.07 72.82 116.38 72.95 116.67C73.08 116.97 73.27 117.21 73.52 117.39C73.77 117.58 74.09 117.67 74.46 117.67Z" fill="#00002F"/>
<path d="M82.11 118.7L80.64 112.78H81.87L82.92 117.08L84.02 112.78H85.28L86.38 117.07L87.42 112.78H88.66L87.18 118.7H85.61L84.65 114.93L83.7 118.7H82.12H82.11Z" fill="#00002F"/>
<path d="M92.22 118.7V112.78H96.3V113.85H93.45V115.18H95.93V116.21H93.45V117.63H96.34V118.7H92.22Z" fill="#00002F"/>
<path d="M100.15 118.7V112.78H102.55C102.99 112.78 103.36 112.86 103.67 113.01C103.98 113.17 104.22 113.38 104.39 113.65C104.56 113.92 104.64 114.24 104.64 114.59C104.64 114.98 104.54 115.32 104.34 115.61C104.14 115.9 103.86 116.11 103.5 116.25L104.79 118.7H103.42L102.24 116.42H101.37V118.7H100.14H100.15ZM102.54 113.85H101.39V115.42H102.54C102.81 115.42 103.02 115.35 103.18 115.2C103.34 115.05 103.41 114.87 103.41 114.65C103.41 114.43 103.33 114.24 103.18 114.09C103.03 113.94 102.81 113.86 102.54 113.86V113.85Z" fill="#00002F"/>
<path d="M108.65 118.7V112.78H109.88V115.14H112.18V112.78H113.41V118.7H112.18V116.21H109.88V118.7H108.65Z" fill="#00002F"/>
<path d="M120.07 118.78C119.58 118.78 119.15 118.69 118.77 118.52C118.4 118.35 118.08 118.11 117.83 117.82C117.58 117.53 117.39 117.2 117.26 116.84C117.14 116.48 117.07 116.11 117.07 115.73C117.07 115.35 117.13 114.98 117.26 114.62C117.39 114.26 117.57 113.94 117.83 113.65C118.08 113.36 118.4 113.13 118.77 112.96C119.14 112.79 119.58 112.7 120.07 112.7C120.56 112.7 121 112.79 121.37 112.96C121.74 113.13 122.06 113.36 122.31 113.65C122.56 113.94 122.75 114.26 122.87 114.62C122.99 114.98 123.06 115.35 123.06 115.73C123.06 116.11 123 116.48 122.87 116.84C122.74 117.2 122.56 117.53 122.31 117.82C122.06 118.11 121.75 118.34 121.37 118.52C121 118.69 120.56 118.78 120.07 118.78ZM120.07 117.67C120.44 117.67 120.76 117.58 121.01 117.39C121.27 117.2 121.46 116.96 121.59 116.67C121.72 116.38 121.78 116.06 121.78 115.74C121.78 115.42 121.72 115.11 121.59 114.81C121.46 114.52 121.27 114.28 121.01 114.09C120.75 113.9 120.44 113.81 120.07 113.81C119.7 113.81 119.38 113.9 119.13 114.09C118.88 114.28 118.69 114.52 118.56 114.81C118.43 115.1 118.37 115.41 118.37 115.74C118.37 116.07 118.43 116.38 118.56 116.67C118.69 116.97 118.88 117.21 119.13 117.39C119.38 117.58 119.7 117.67 120.07 117.67Z" fill="#00002F"/>
<path d="M129.14 118.78C128.71 118.78 128.31 118.7 127.94 118.53C127.57 118.36 127.28 118.11 127.06 117.76C126.84 117.41 126.73 116.96 126.73 116.41V112.78H127.96V116.41C127.96 116.75 128.06 117.04 128.25 117.27C128.44 117.5 128.74 117.62 129.14 117.62C129.54 117.62 129.83 117.5 130.02 117.27C130.21 117.04 130.3 116.75 130.3 116.41V112.78H131.54V116.41C131.54 116.96 131.43 117.42 131.21 117.76C130.99 118.1 130.69 118.36 130.33 118.53C129.97 118.7 129.56 118.78 129.14 118.78Z" fill="#00002F"/>
<path d="M137.64 118.78C137.26 118.78 136.93 118.73 136.66 118.64C136.39 118.55 136.17 118.43 135.99 118.28C135.81 118.13 135.67 117.98 135.56 117.82C135.45 117.66 135.37 117.5 135.32 117.36C135.27 117.22 135.23 117.05 135.2 116.86H136.45C136.5 117.04 136.56 117.19 136.64 117.31C136.72 117.43 136.84 117.53 137.01 117.62C137.18 117.71 137.4 117.75 137.68 117.75C138.03 117.75 138.28 117.68 138.45 117.53C138.62 117.38 138.7 117.21 138.7 117.01C138.7 116.83 138.64 116.68 138.51 116.58C138.38 116.48 138.19 116.39 137.93 116.34L137.14 116.19C136.82 116.13 136.52 116.04 136.25 115.91C135.98 115.78 135.75 115.6 135.58 115.38C135.41 115.15 135.32 114.86 135.32 114.5C135.32 114.14 135.41 113.82 135.59 113.55C135.77 113.28 136.03 113.07 136.35 112.93C136.68 112.78 137.06 112.71 137.51 112.71C137.93 112.71 138.27 112.77 138.55 112.89C138.82 113.01 139.04 113.16 139.21 113.33C139.37 113.5 139.49 113.68 139.57 113.85C139.65 114.03 139.71 114.23 139.76 114.47H138.54C138.5 114.32 138.45 114.2 138.38 114.1C138.31 114 138.21 113.92 138.06 113.84C137.92 113.77 137.73 113.73 137.48 113.73C137.14 113.73 136.9 113.8 136.75 113.95C136.6 114.1 136.53 114.26 136.53 114.43C136.53 114.6 136.6 114.74 136.75 114.84C136.9 114.94 137.09 115.01 137.33 115.06L138.17 115.23C138.49 115.29 138.78 115.39 139.05 115.53C139.32 115.67 139.53 115.85 139.69 116.09C139.85 116.32 139.93 116.61 139.93 116.95C139.93 117.29 139.84 117.62 139.67 117.9C139.49 118.18 139.23 118.4 138.89 118.56C138.55 118.72 138.13 118.8 137.63 118.8L137.64 118.78Z" fill="#00002F"/>
<path d="M143.56 118.7V112.78H147.64V113.85H144.79V115.18H147.27V116.21H144.79V117.63H147.68V118.7H143.56Z" fill="#00002F"/>
<path d="M156.13 118.7V112.78H160.27V113.85H157.37V115.4H159.91V116.43H157.37V118.69H156.14L156.13 118.7Z" fill="#00002F"/>
<path d="M166.53 118.78C166.1 118.78 165.7 118.7 165.33 118.53C164.96 118.36 164.67 118.11 164.45 117.76C164.23 117.41 164.12 116.96 164.12 116.41V112.78H165.35V116.41C165.35 116.75 165.45 117.04 165.64 117.27C165.83 117.5 166.13 117.62 166.53 117.62C166.93 117.62 167.23 117.5 167.41 117.27C167.6 117.04 167.69 116.75 167.69 116.41V112.78H168.93V116.41C168.93 116.96 168.82 117.42 168.6 117.76C168.38 118.11 168.08 118.36 167.72 118.53C167.36 118.7 166.95 118.78 166.53 118.78ZM165.6 112.29C165.4 112.29 165.24 112.22 165.11 112.09C164.98 111.96 164.91 111.8 164.91 111.62C164.91 111.44 164.97 111.28 165.11 111.15C165.25 111.02 165.4 110.96 165.6 110.96C165.8 110.96 165.96 111.02 166.09 111.15C166.22 111.28 166.29 111.44 166.29 111.62C166.29 111.8 166.22 111.96 166.09 112.09C165.96 112.22 165.8 112.29 165.6 112.29ZM167.42 112.29C167.22 112.29 167.05 112.22 166.92 112.09C166.79 111.96 166.73 111.8 166.73 111.62C166.73 111.44 166.79 111.28 166.92 111.15C167.05 111.02 167.21 110.96 167.42 110.96C167.63 110.96 167.78 111.02 167.91 111.15C168.04 111.28 168.11 111.44 168.11 111.62C168.11 111.8 168.04 111.96 167.91 112.09C167.78 112.22 167.62 112.29 167.42 112.29Z" fill="#00002F"/>
<path d="M172.85 118.7V112.78H175.25C175.69 112.78 176.06 112.86 176.37 113.01C176.68 113.17 176.92 113.38 177.09 113.65C177.26 113.92 177.34 114.24 177.34 114.59C177.34 114.98 177.24 115.32 177.04 115.61C176.84 115.9 176.56 116.11 176.2 116.25L177.49 118.7H176.12L174.94 116.42H174.07V118.7H172.84H172.85ZM175.24 113.85H174.09V115.42H175.24C175.51 115.42 175.73 115.35 175.88 115.2C176.04 115.05 176.11 114.87 176.11 114.65C176.11 114.43 176.03 114.24 175.88 114.09C175.73 113.94 175.51 113.86 175.24 113.86V113.85Z" fill="#00002F"/>
<path d="M185.99 118.7V112.78H188.23C188.71 112.78 189.13 112.86 189.5 113.03C189.87 113.2 190.17 113.42 190.41 113.71C190.65 113.99 190.83 114.31 190.95 114.66C191.07 115.01 191.13 115.37 191.13 115.74C191.13 116.11 191.07 116.47 190.95 116.82C190.83 117.17 190.65 117.49 190.41 117.77C190.17 118.05 189.87 118.28 189.5 118.45C189.13 118.62 188.71 118.7 188.23 118.7H185.99ZM188.17 113.86H187.22V117.6H188.17C188.56 117.6 188.88 117.51 189.13 117.33C189.38 117.15 189.57 116.91 189.7 116.63C189.83 116.35 189.89 116.04 189.89 115.73C189.89 115.42 189.83 115.12 189.7 114.84C189.58 114.55 189.39 114.32 189.13 114.14C188.88 113.96 188.56 113.86 188.17 113.86Z" fill="#00002F"/>
<path d="M194.18 118.7L196.2 112.78H197.84L199.86 118.7H198.56L198.18 117.54H195.86L195.48 118.7H194.18ZM196.2 116.47H197.83L197.01 114L196.19 116.47H196.2Z" fill="#00002F"/>
<path d="M204.19 118.7V113.85H202.37V112.78H207.23V113.85H205.41V118.7H204.18H204.19Z" fill="#00002F"/>
<path d="M210.9 118.7V112.78H214.98V113.85H212.13V115.18H214.61V116.21H212.13V117.63H215.02V118.7H210.9Z" fill="#00002F"/>
<path d="M218.83 118.7V112.78H219.96L222.51 116.56V112.78H223.73V118.7H222.59L220.05 115.03V118.7H218.83Z" fill="#00002F"/>
<path d="M227.62 118.7V112.78H230.02C230.46 112.78 230.83 112.86 231.14 113.01C231.45 113.17 231.69 113.38 231.86 113.65C232.03 113.92 232.11 114.24 232.11 114.59C232.11 114.98 232.01 115.32 231.81 115.61C231.61 115.9 231.33 116.11 230.97 116.25L232.26 118.7H230.89L229.71 116.42H228.84V118.7H227.61H227.62ZM230.01 113.85H228.86V115.42H230.01C230.28 115.42 230.5 115.35 230.65 115.2C230.81 115.05 230.88 114.87 230.88 114.65C230.88 114.43 230.8 114.24 230.65 114.09C230.5 113.94 230.28 113.86 230.01 113.86V113.85Z" fill="#00002F"/>
<path d="M236.12 118.7V112.78H240.2V113.85H237.35V115.18H239.83V116.21H237.35V117.63H240.24V118.7H236.12Z" fill="#00002F"/>
<path d="M246.23 118.78C245.85 118.78 245.52 118.73 245.25 118.64C244.98 118.55 244.76 118.43 244.58 118.28C244.4 118.13 244.26 117.98 244.15 117.82C244.04 117.66 243.97 117.5 243.91 117.36C243.85 117.22 243.82 117.05 243.79 116.86H245.04C245.09 117.04 245.15 117.19 245.23 117.31C245.31 117.43 245.43 117.53 245.6 117.62C245.77 117.71 245.99 117.75 246.27 117.75C246.62 117.75 246.87 117.68 247.04 117.53C247.21 117.38 247.29 117.21 247.29 117.01C247.29 116.83 247.23 116.68 247.1 116.58C246.98 116.47 246.78 116.39 246.52 116.34L245.73 116.19C245.41 116.13 245.11 116.04 244.84 115.91C244.57 115.78 244.34 115.6 244.17 115.38C244 115.16 243.91 114.86 243.91 114.5C243.91 114.14 244 113.82 244.18 113.55C244.36 113.28 244.62 113.07 244.94 112.93C245.27 112.78 245.65 112.71 246.1 112.71C246.52 112.71 246.86 112.77 247.14 112.89C247.42 113.01 247.63 113.16 247.8 113.33C247.96 113.5 248.08 113.68 248.16 113.85C248.24 114.03 248.3 114.23 248.35 114.47H247.13C247.09 114.32 247.04 114.2 246.97 114.1C246.9 114 246.8 113.92 246.65 113.84C246.51 113.77 246.32 113.73 246.07 113.73C245.73 113.73 245.49 113.8 245.34 113.95C245.19 114.1 245.12 114.26 245.12 114.43C245.12 114.6 245.19 114.74 245.34 114.84C245.49 114.94 245.68 115.01 245.92 115.06L246.76 115.23C247.08 115.29 247.37 115.39 247.64 115.53C247.91 115.67 248.12 115.85 248.28 116.09C248.44 116.32 248.52 116.61 248.52 116.95C248.52 117.29 248.43 117.62 248.26 117.9C248.09 118.18 247.83 118.4 247.48 118.56C247.14 118.72 246.72 118.8 246.22 118.8L246.23 118.78Z" fill="#00002F"/>
<path d="M252.15 118.7V112.78H253.38V118.7H252.15Z" fill="#00002F"/>
<path d="M257.26 118.7V112.78H258.49V117.63H261.39V118.7H257.26Z" fill="#00002F"/>
<path d="M265.21 118.7V112.78H266.44V118.7H265.21Z" fill="#00002F"/>
<path d="M270.32 118.7V112.78H274.4V113.85H271.55V115.18H274.03V116.21H271.55V117.63H274.44V118.7H270.32Z" fill="#00002F"/>
<path d="M278.25 118.7V112.78H279.38L281.93 116.56V112.78H283.15V118.7H282.01L279.47 115.03V118.7H278.25Z" fill="#00002F"/>
<path d="M286.88 118.7V117.82L289.82 113.86H286.88V112.78H291.42V113.65L288.48 117.62H291.42V118.7H286.88Z" fill="#00002F"/>
</g>
<defs>
<clipPath id="clip0_509_481">
<rect width="295.22" height="118.78" fill="white"/>
</clipPath>
</defs>
</svg>
