<svg width="584" height="77" viewBox="0 0 584 77" fill="none" xmlns="http://www.w3.org/2000/svg">
<path d="M4.88574 70.0002V15.2304H32.1159C34.4367 15.2304 36.6027 15.4883 38.614 16.004C40.6254 16.4681 42.3788 17.2675 43.8744 18.4021C45.37 19.5367 46.5304 21.0323 47.3556 22.8889C48.2323 24.7455 48.6707 27.0663 48.6707 29.8512C48.6707 31.8109 48.2065 33.7191 47.2782 35.5757C46.4015 37.3807 45.1637 38.799 43.565 39.8304C45.731 40.8619 47.5103 42.4348 48.9027 44.5493C50.2952 46.6122 50.9914 49.2939 50.9914 52.5946C50.9914 55.8436 50.3725 58.577 49.1348 60.7946C47.9486 63.0122 46.2983 64.8172 44.1839 66.2097C42.0694 67.5505 39.5939 68.5304 36.7574 69.1493C33.921 69.7166 30.8782 70.0002 27.6291 70.0002H4.88574ZM18.8876 57.0814H30.0273C31.265 57.0814 32.3222 56.9782 33.199 56.7719C34.0757 56.5141 34.7977 56.1788 35.365 55.7663C35.9323 55.3537 36.3449 54.8637 36.6027 54.2964C36.8606 53.6776 36.9895 53.0071 36.9895 52.2851C36.9895 51.5115 36.8606 50.8669 36.6027 50.3512C36.3449 49.7839 35.9323 49.3197 35.365 48.9587C34.8493 48.5461 34.1788 48.2625 33.3537 48.1078C32.5801 47.9015 31.6518 47.7983 30.5688 47.7983H18.8876V57.0814ZM18.8876 36.504H28.7122C29.7952 36.504 30.7235 36.4008 31.4971 36.1946C32.2707 35.9367 32.8895 35.6015 33.3537 35.1889C33.8178 34.7247 34.153 34.209 34.3593 33.6417C34.6172 33.0744 34.7461 32.4556 34.7461 31.7851C34.7461 30.8052 34.514 30.0575 34.0499 29.5417C33.5857 29.026 32.9153 28.665 32.0386 28.4587C31.1618 28.2524 30.1046 28.1493 28.8669 28.1493H18.8876V36.504Z" fill="white"/>
<path d="M73.5342 70.0002V15.2304H96.6643C99.1398 15.2304 101.667 15.4625 104.245 15.9266C106.824 16.3908 109.222 17.2675 111.44 18.5568C113.657 19.7946 115.437 21.5996 116.778 23.9719C118.118 26.3442 118.789 29.4386 118.789 33.2549C118.789 35.6273 118.428 37.8707 117.706 39.9851C116.984 42.048 115.823 43.8788 114.225 45.4776C112.678 47.0763 110.615 48.3656 108.036 49.3455L120.723 70.0002H104.787L94.2662 51.5115H87.536V70.0002H73.5342ZM87.536 39.2115H96.7417C98.0826 39.2115 99.243 39.0826 100.223 38.8247C101.254 38.5669 102.105 38.2059 102.776 37.7417C103.498 37.226 104.039 36.6071 104.4 35.8851C104.761 35.1631 104.942 34.3122 104.942 33.3323C104.942 31.8883 104.581 30.8052 103.859 30.0832C103.137 29.3612 102.183 28.8713 100.996 28.6134C99.8103 28.3556 98.4694 28.2266 96.9738 28.2266H87.536V39.2115Z" fill="white"/>
<path d="M157.888 70.0002V49.6549L136.847 15.2304H153.015L164.928 36.9681L177.228 15.2304H193.086L171.89 49.5776V70.0002H157.888Z" fill="white"/>
<path d="M224.769 70.0002V28.2266H208.524V15.2304H255.094V28.2266H238.771V70.0002H224.769Z" fill="white"/>
<path d="M275.772 70.0002V15.2304H317.082V28.2266H289.774V36.5814H312.285V48.9587H289.774V57.0814H317.082V70.0002H275.772Z" fill="white"/>
<path d="M363.49 70.6191C358.023 70.6191 353.252 69.4845 349.178 67.2153C345.156 64.8946 342.035 61.6197 339.818 57.3908C337.6 53.1619 336.491 48.1593 336.491 42.3832C336.491 38.0512 337.11 34.1832 338.348 30.7795C339.637 27.3241 341.468 24.3845 343.84 21.9606C346.213 19.5367 349.049 17.7059 352.35 16.4681C355.702 15.1788 359.415 14.5342 363.49 14.5342C367.718 14.5342 371.586 15.2562 375.093 16.7002C378.652 18.0927 381.591 20.2845 383.912 23.2757C386.284 26.2153 387.78 29.9801 388.399 34.57H374.552C374.242 32.9197 373.623 31.6046 372.695 30.6247C371.818 29.6449 370.684 28.9229 369.291 28.4587C367.951 27.9946 366.403 27.7625 364.65 27.7625C362.071 27.7625 359.905 28.2008 358.152 29.0776C356.398 29.9543 354.98 31.1405 353.897 32.6361C352.866 34.0801 352.118 35.7046 351.654 37.5097C351.19 39.2631 350.957 41.0424 350.957 42.8474C350.957 45.2713 351.37 47.6178 352.195 49.887C353.072 52.1046 354.464 53.9097 356.373 55.3021C358.332 56.6946 360.962 57.3908 364.263 57.3908C365.913 57.3908 367.486 57.1845 368.982 56.7719C370.478 56.3593 371.741 55.7147 372.773 54.838C373.804 53.9097 374.449 52.7235 374.707 51.2795H361.788V39.521H389.405V41.5323C389.405 47.6694 388.476 52.904 386.62 57.2361C384.763 61.5681 381.927 64.8946 378.11 67.2153C374.294 69.4845 369.42 70.6191 363.49 70.6191Z" fill="white"/>
<path d="M489.082 70.0002V28.2266H472.836V15.2304H519.406V28.2266H503.084V70.0002H489.082Z" fill="white"/>
<path d="M540.084 70.0002V15.2304H581.394V28.2266H554.086V36.5814H576.598V48.9587H554.086V57.0814H581.394V70.0002H540.084Z" fill="white"/>
<path d="M434.021 14.4316L462.521 69.4316H434.021H405.521L434.021 14.4316Z" stroke="white" stroke-width="12"/>
</svg>
