<svg width="63" height="63" viewBox="0 0 63 63" fill="none" xmlns="http://www.w3.org/2000/svg">
<path d="M31.5 1.5C48.0685 1.5 61.5 14.9315 61.5 31.5C61.5 48.0685 48.0685 61.5 31.5 61.5C14.9315 61.5 1.5 48.0685 1.5 31.5C1.5 14.9315 14.9315 1.5 31.5 1.5Z" fill="#333399" stroke="#00002F" stroke-width="3"/>
<path d="M31.4925 5.02002L30.3291 8.60069L32.1194 9.18241L31.4925 5.02002Z" fill="#E7BA21"/>
<path d="M31.4925 5.02002L32.656 8.60069L30.8656 9.18241L31.4925 5.02002Z" fill="#E7BA21"/>
<path d="M35.0734 7.62183H31.3084V9.5043L35.0734 7.62183Z" fill="#E7BA21"/>
<path d="M35.0734 7.62183L32.0275 9.8348L30.921 8.31185L35.0734 7.62183Z" fill="#E7BA21"/>
<path d="M33.7056 11.8308L32.5422 8.25014L30.7519 8.83185L33.7056 11.8308Z" fill="#E7BA21"/>
<path d="M33.7056 11.8308L30.6597 9.61783L31.7662 8.09488L33.7056 11.8308Z" fill="#E7BA21"/>
<path d="M27.912 7.62183H31.6769V9.5043L27.912 7.62183Z" fill="#E7BA21"/>
<path d="M27.912 7.62183L30.9579 9.8348L32.0644 8.31185L27.912 7.62183Z" fill="#E7BA21"/>
<path d="M29.2797 11.8308L30.4432 8.25014L32.2335 8.83185L29.2797 11.8308Z" fill="#E7BA21"/>
<path d="M29.2797 11.8308L32.3256 9.61783L31.2191 8.09488L29.2797 11.8308Z" fill="#E7BA21"/>
<path d="M31.4925 50.1995L30.3291 53.7801L32.1194 54.3618L31.4925 50.1995Z" fill="#E7BA21"/>
<path d="M31.4925 50.1995L32.656 53.7801L30.8656 54.3618L31.4925 50.1995Z" fill="#E7BA21"/>
<path d="M35.0734 52.8008H31.3084V54.6833L35.0734 52.8008Z" fill="#E7BA21"/>
<path d="M35.0734 52.8008L32.0275 55.0138L30.921 53.4908L35.0734 52.8008Z" fill="#E7BA21"/>
<path d="M33.7056 57.0103L32.5422 53.4296L30.7519 54.0113L33.7056 57.0103Z" fill="#E7BA21"/>
<path d="M33.7056 57.0103L30.6597 54.7973L31.7662 53.2743L33.7056 57.0103Z" fill="#E7BA21"/>
<path d="M27.912 52.8008H31.6769V54.6833L27.912 52.8008Z" fill="#E7BA21"/>
<path d="M27.912 52.8008L30.9579 55.0138L32.0644 53.4908L27.912 52.8008Z" fill="#E7BA21"/>
<path d="M29.2797 57.0103L30.4432 53.4296L32.2335 54.0113L29.2797 57.0103Z" fill="#E7BA21"/>
<path d="M29.2797 57.0103L32.3256 54.7973L31.2191 53.2743L29.2797 57.0103Z" fill="#E7BA21"/>
<path d="M8.90314 27.6091L7.73971 31.1898L9.53004 31.7715L8.90314 27.6091Z" fill="#E7BA21"/>
<path d="M8.90314 27.6091L10.0666 31.1898L8.27623 31.7715L8.90314 27.6091Z" fill="#E7BA21"/>
<path d="M12.4836 30.2109H8.71864V32.0934L12.4836 30.2109Z" fill="#E7BA21"/>
<path d="M12.4836 30.2109L9.43768 32.4239L8.33119 30.901L12.4836 30.2109Z" fill="#E7BA21"/>
<path d="M11.1163 34.4204L9.95284 30.8397L8.16251 31.4215L11.1163 34.4204Z" fill="#E7BA21"/>
<path d="M11.1163 34.4204L8.07037 32.2074L9.17686 30.6845L11.1163 34.4204Z" fill="#E7BA21"/>
<path d="M5.32248 30.2109H9.08742V32.0934L5.32248 30.2109Z" fill="#E7BA21"/>
<path d="M5.32248 30.2109L8.36838 32.4239L9.47487 30.901L5.32248 30.2109Z" fill="#E7BA21"/>
<path d="M6.68997 34.4204L7.8534 30.8397L9.64374 31.4215L6.68997 34.4204Z" fill="#E7BA21"/>
<path d="M6.68997 34.4204L9.73587 32.2074L8.62938 30.6845L6.68997 34.4204Z" fill="#E7BA21"/>
<path d="M17.9848 14.8572L21.0307 12.6442L19.9242 11.1213L17.9848 14.8572Z" fill="#E7BA21"/>
<path d="M17.9848 14.8572L19.1482 11.2765L20.9385 11.8582L17.9848 14.8572Z" fill="#E7BA21"/>
<path d="M16.6171 10.6477L19.663 12.8607L20.7695 11.3377L16.6171 10.6477Z" fill="#E7BA21"/>
<path d="M16.6171 10.6477H20.3821V12.5302L16.6171 10.6477Z" fill="#E7BA21"/>
<path d="M20.198 8.04639L19.0345 11.6271L20.8249 12.2088L20.198 8.04639Z" fill="#E7BA21"/>
<path d="M20.198 8.04639L21.3614 11.6271L19.5711 12.2088L20.198 8.04639Z" fill="#E7BA21"/>
<path d="M22.4109 14.8572L19.365 12.6442L20.4714 11.1213L22.4109 14.8572Z" fill="#E7BA21"/>
<path d="M22.4109 14.8572L21.2474 11.2765L19.4571 11.8582L22.4109 14.8572Z" fill="#E7BA21"/>
<path d="M23.7786 10.6479L20.7327 12.8609L19.6262 11.338L23.7786 10.6479Z" fill="#E7BA21"/>
<path d="M23.7786 10.6479H20.0136V12.5304L23.7786 10.6479Z" fill="#E7BA21"/>
<path d="M14.1426 23.1257L12.9791 19.5451L11.1888 20.1268L14.1426 23.1257Z" fill="#E7BA21"/>
<path d="M14.1426 23.1257L11.0967 20.9128L12.2032 19.3898L14.1426 23.1257Z" fill="#E7BA21"/>
<path d="M9.71661 23.1257L12.7625 20.9128L11.656 19.3898L9.71661 23.1257Z" fill="#E7BA21"/>
<path d="M9.71661 23.1257L10.88 19.5451L12.6704 20.1268L9.71661 23.1257Z" fill="#E7BA21"/>
<path d="M8.34906 18.9163L11.395 21.1292L12.5014 19.6063L8.34906 18.9163Z" fill="#E7BA21"/>
<path d="M8.34906 18.9163H12.114V20.7987L8.34906 18.9163Z" fill="#E7BA21"/>
<path d="M15.51 18.9163L12.4641 21.1292L11.3576 19.6063L15.51 18.9163Z" fill="#E7BA21"/>
<path d="M15.51 18.9163H11.745V20.7987L15.51 18.9163Z" fill="#E7BA21"/>
<path d="M11.9296 16.3149L13.093 19.8956L11.3027 20.4773L11.9296 16.3149Z" fill="#E7BA21"/>
<path d="M11.9296 16.3149L10.7662 19.8956L12.5565 20.4773L11.9296 16.3149Z" fill="#E7BA21"/>
<path d="M15.5103 41.5059H11.7453V43.3883L15.5103 41.5059Z" fill="#E7BA21"/>
<path d="M15.5103 41.5059L12.4644 43.7188L11.3579 42.1959L15.5103 41.5059Z" fill="#E7BA21"/>
<path d="M14.1424 45.7153L12.979 42.1347L11.1887 42.7164L14.1424 45.7153Z" fill="#E7BA21"/>
<path d="M14.1424 45.7153L11.0965 43.5024L12.203 41.9794L14.1424 45.7153Z" fill="#E7BA21"/>
<path d="M9.71661 45.7153L12.7625 43.5024L11.656 41.9794L9.71661 45.7153Z" fill="#E7BA21"/>
<path d="M9.71661 45.7153L10.88 42.1347L12.6704 42.7164L9.71661 45.7153Z" fill="#E7BA21"/>
<path d="M11.9297 38.9043L13.0931 42.485L11.3028 43.0667L11.9297 38.9043Z" fill="#E7BA21"/>
<path d="M11.9297 38.9043L10.7662 42.485L12.5566 43.0667L11.9297 38.9043Z" fill="#E7BA21"/>
<path d="M8.34891 41.5059H12.1138V43.3883L8.34891 41.5059Z" fill="#E7BA21"/>
<path d="M8.34891 41.5059L11.3948 43.7188L12.5013 42.1959L8.34891 41.5059Z" fill="#E7BA21"/>
<path d="M23.7785 49.7742H20.0136V51.6566L23.7785 49.7742Z" fill="#E7BA21"/>
<path d="M23.7785 49.7742L20.7326 51.9871L19.6261 50.4642L23.7785 49.7742Z" fill="#E7BA21"/>
<path d="M22.4106 53.9836L21.2472 50.403L19.4569 50.9847L22.4106 53.9836Z" fill="#E7BA21"/>
<path d="M22.4106 53.9836L19.3647 51.7707L20.4712 50.2477L22.4106 53.9836Z" fill="#E7BA21"/>
<path d="M17.9848 53.9836L21.0307 51.7707L19.9242 50.2477L17.9848 53.9836Z" fill="#E7BA21"/>
<path d="M17.9848 53.9836L19.1482 50.403L20.9386 50.9847L17.9848 53.9836Z" fill="#E7BA21"/>
<path d="M20.1978 47.1726L21.3613 50.7533L19.5709 51.335L20.1978 47.1726Z" fill="#E7BA21"/>
<path d="M20.1978 47.1726L19.0344 50.7533L20.8248 51.335L20.1978 47.1726Z" fill="#E7BA21"/>
<path d="M16.6171 49.7739H20.3821V51.6564L16.6171 49.7739Z" fill="#E7BA21"/>
<path d="M16.6171 49.7739L19.663 51.9869L20.7695 50.464L16.6171 49.7739Z" fill="#E7BA21"/>
<path d="M54.0823 27.6091L55.2458 31.1898L53.4554 31.7715L54.0823 27.6091Z" fill="#E7BA21"/>
<path d="M54.0823 27.6091L52.9189 31.1898L54.7092 31.7715L54.0823 27.6091Z" fill="#E7BA21"/>
<path d="M50.5016 30.2109H54.2665V32.0934L50.5016 30.2109Z" fill="#E7BA21"/>
<path d="M50.5016 30.2109L53.5475 32.4239L54.654 30.901L50.5016 30.2109Z" fill="#E7BA21"/>
<path d="M51.8693 34.4204L53.0328 30.8397L54.8231 31.4215L51.8693 34.4204Z" fill="#E7BA21"/>
<path d="M51.8693 34.4204L54.9152 32.2074L53.8087 30.6845L51.8693 34.4204Z" fill="#E7BA21"/>
<path d="M57.6629 30.2109H53.898V32.0934L57.6629 30.2109Z" fill="#E7BA21"/>
<path d="M57.6629 30.2109L54.617 32.4239L53.5105 30.901L57.6629 30.2109Z" fill="#E7BA21"/>
<path d="M56.2954 34.4204L55.132 30.8397L53.3417 31.4215L56.2954 34.4204Z" fill="#E7BA21"/>
<path d="M56.2954 34.4204L53.2495 32.2074L54.356 30.6845L56.2954 34.4204Z" fill="#E7BA21"/>
<path d="M45.0003 14.8572L41.9544 12.6442L43.0609 11.1213L45.0003 14.8572Z" fill="#E7BA21"/>
<path d="M45.0003 14.8572L43.8369 11.2765L42.0466 11.8582L45.0003 14.8572Z" fill="#E7BA21"/>
<path d="M46.368 10.6479L43.322 12.8609L42.2156 11.338L46.368 10.6479Z" fill="#E7BA21"/>
<path d="M46.368 10.6479H42.603V12.5304L46.368 10.6479Z" fill="#E7BA21"/>
<path d="M42.7874 8.04614L43.9508 11.6268L42.1605 12.2085L42.7874 8.04614Z" fill="#E7BA21"/>
<path d="M42.7874 8.04614L41.624 11.6268L43.4143 12.2085L42.7874 8.04614Z" fill="#E7BA21"/>
<path d="M40.5744 14.8572L43.6203 12.6442L42.5138 11.1213L40.5744 14.8572Z" fill="#E7BA21"/>
<path d="M40.5744 14.8572L41.7378 11.2765L43.5282 11.8582L40.5744 14.8572Z" fill="#E7BA21"/>
<path d="M39.2069 10.6479L42.2528 12.8609L43.3593 11.338L39.2069 10.6479Z" fill="#E7BA21"/>
<path d="M39.2069 10.6479H42.9718V12.5304L39.2069 10.6479Z" fill="#E7BA21"/>
<path d="M48.8426 23.126L50.0061 19.5453L51.7964 20.127L48.8426 23.126Z" fill="#E7BA21"/>
<path d="M48.8426 23.126L51.8885 20.913L50.782 19.39L48.8426 23.126Z" fill="#E7BA21"/>
<path d="M53.2686 23.1257L50.2227 20.9128L51.3292 19.3898L53.2686 23.1257Z" fill="#E7BA21"/>
<path d="M53.2686 23.1257L52.1052 19.5451L50.3148 20.1268L53.2686 23.1257Z" fill="#E7BA21"/>
<path d="M54.6363 18.9163L51.5904 21.1292L50.4839 19.6063L54.6363 18.9163Z" fill="#E7BA21"/>
<path d="M54.6363 18.9163H50.8714V20.7987L54.6363 18.9163Z" fill="#E7BA21"/>
<path d="M47.475 18.9163L50.5209 21.1292L51.6274 19.6063L47.475 18.9163Z" fill="#E7BA21"/>
<path d="M47.475 18.9163H51.2399V20.7987L47.475 18.9163Z" fill="#E7BA21"/>
<path d="M51.0556 16.3149L49.8922 19.8956L51.6825 20.4773L51.0556 16.3149Z" fill="#E7BA21"/>
<path d="M51.0556 16.3149L52.219 19.8956L50.4287 20.4773L51.0556 16.3149Z" fill="#E7BA21"/>
<path d="M47.4753 41.5061H51.2402V43.3886L47.4753 41.5061Z" fill="#E7BA21"/>
<path d="M47.4753 41.5061L50.5212 43.7191L51.6276 42.1961L47.4753 41.5061Z" fill="#E7BA21"/>
<path d="M48.843 45.7156L50.0064 42.1349L51.7967 42.7166L48.843 45.7156Z" fill="#E7BA21"/>
<path d="M48.843 45.7156L51.8889 43.5026L50.7824 41.9796L48.843 45.7156Z" fill="#E7BA21"/>
<path d="M53.2688 45.7156L50.2229 43.5026L51.3294 41.9796L53.2688 45.7156Z" fill="#E7BA21"/>
<path d="M53.2688 45.7156L52.1054 42.1349L50.3151 42.7166L53.2688 45.7156Z" fill="#E7BA21"/>
<path d="M51.0558 38.9045L49.8924 42.4852L51.6827 43.0669L51.0558 38.9045Z" fill="#E7BA21"/>
<path d="M51.0558 38.9045L52.2192 42.4852L50.4289 43.0669L51.0558 38.9045Z" fill="#E7BA21"/>
<path d="M54.6365 41.5061H50.8716V43.3886L54.6365 41.5061Z" fill="#E7BA21"/>
<path d="M54.6365 41.5061L51.5906 43.7191L50.4841 42.1961L54.6365 41.5061Z" fill="#E7BA21"/>
<path d="M39.2067 49.7742H42.9716V51.6566L39.2067 49.7742Z" fill="#E7BA21"/>
<path d="M39.2067 49.7742L42.2526 51.9871L43.3591 50.4642L39.2067 49.7742Z" fill="#E7BA21"/>
<path d="M40.5745 53.9836L41.738 50.403L43.5283 50.9847L40.5745 53.9836Z" fill="#E7BA21"/>
<path d="M40.5745 53.9836L43.6204 51.7707L42.5139 50.2477L40.5745 53.9836Z" fill="#E7BA21"/>
<path d="M45.0004 53.9836L41.9545 51.7707L43.061 50.2477L45.0004 53.9836Z" fill="#E7BA21"/>
<path d="M45.0004 53.9836L43.837 50.403L42.0467 50.9847L45.0004 53.9836Z" fill="#E7BA21"/>
<path d="M42.7874 47.1726L41.6239 50.7533L43.4143 51.335L42.7874 47.1726Z" fill="#E7BA21"/>
<path d="M42.7874 47.1726L43.9508 50.7533L42.1604 51.335L42.7874 47.1726Z" fill="#E7BA21"/>
<path d="M46.3683 49.7739H42.6033V51.6564L46.3683 49.7739Z" fill="#E7BA21"/>
<path d="M46.3683 49.7739L43.3224 51.9869L42.2159 50.464L46.3683 49.7739Z" fill="#E7BA21"/>
</svg>
