<svg width="237" height="234" viewBox="0 0 237 234" fill="none" xmlns="http://www.w3.org/2000/svg">
<path d="M206.755 174.507C208.54 174.364 210.893 174.567 211.618 176.467C212.493 178.372 208.565 182.842 207.225 184.172C206.022 185.368 203.992 187.944 201.673 190.888C197.089 196.707 191.374 203.962 188.663 204.842C186.565 204.559 183.318 201.287 180.943 198.893C180.314 198.26 179.747 197.688 179.278 197.249C178.936 196.878 178.483 196.456 177.992 195.998C175.414 193.595 171.782 190.21 177.695 188.099C179.302 187.525 185.071 192.998 187.49 195.293C187.83 195.616 188.104 195.876 188.29 196.047C189.422 194.83 192.054 191.635 194.996 188.064C199.871 182.148 205.595 175.199 206.755 174.507Z" fill="#131545"/>
<path d="M84.8063 42.0112C88.8158 41.6754 91.845 46.4997 86.8978 48.5052C83.6678 49.8144 80.0565 50.6799 76.9133 52.0072C52.604 62.2732 36.1205 85.5237 33.184 111.582C32.593 116.813 33.3413 123.008 31.0213 127.825C29.3113 131.376 26.6418 135.013 23.4353 137.32C21.4923 138.978 15.628 140.925 14.6483 143.359C12.0445 149.827 17.79 153.402 23.4215 151.117C34.2815 146.711 41.7058 137.531 44.4658 126.313C45.4118 122.468 44.9493 117.974 45.3383 114.031C47.5673 89.7669 63.34 69.3429 86.1305 61.5324C102.264 55.9517 119.96 57.0624 135.269 64.6172C149.826 71.7412 160.449 84.3997 165.334 99.6722C168.911 111.267 168.933 124.232 167.544 136.198C167.132 139.742 168.075 145.095 164.073 146.213C160.45 146.314 159.174 145.076 159.757 141.478C161.906 128.198 162.972 114.231 158.497 101.27C142.078 53.4979 74.2148 52.6807 55.977 99.4652C54.548 103.131 53.3158 106.346 52.978 110.324C52.1693 119.849 52.2508 128.946 47.7685 137.722C43.2348 146.598 35.069 154.479 25.548 157.802C18.493 160.264 10.005 158.144 7.68503 150.357C6.98453 147.95 6.89378 145.407 7.42178 142.957C9.61503 132.943 18.7485 134.821 23.4958 127.283C26.2113 122.972 25.682 114.796 26.498 109.542C28.0953 99.2552 30.4973 90.0179 35.489 80.8207C44.4808 64.3394 58.9783 51.5417 76.4478 44.6642C78.8463 43.7132 82.2738 42.7647 84.8063 42.0112Z" fill="#131545"/>
<path d="M106.905 114.984C111.706 116.21 110.364 119.617 110.207 123.426C108.586 162.519 84.0608 197.137 47.5705 211.479C43.509 213.074 39.5123 214.359 35.233 212.702C27.9433 210.269 24.9943 202.297 27.544 195.367C30.101 188.214 36.2893 187.652 42.3443 184.907C59.0863 177.219 72.1165 163.232 78.6008 145.988C79.4263 144.05 80.8305 138.433 82.7418 137.643C85.4695 136.516 86.758 138.334 87.7655 140.552C81.0533 163.557 66.9435 181.467 44.748 191.439C41.8638 192.734 38.222 193.692 35.6633 195.507C32.5648 197.704 32.7373 202.032 35.145 204.662C38.514 208.374 43.424 205.784 47.081 204.144C57.5283 199.534 67.118 193.187 75.442 185.369C88.8133 172.839 97.9553 154.507 101.709 136.594C102.63 132.201 103.212 122.062 103.359 117.73C104.644 115.972 104.88 115.731 106.905 114.984Z" fill="#131545"/>
<path d="M105.762 96.5762C109.086 96.3804 112.847 96.6817 115.927 97.9859C121.741 100.448 126.053 105.013 128.35 110.85C133.263 123.336 125.893 152.609 120.58 164.922C110.659 187.909 96.6558 205.162 75.6035 218.872C71.7435 221.387 65.0438 225.524 60.8963 227.129C60.0093 227.472 58.9448 227.707 58.0535 227.242C57.1958 226.794 56.6055 225.737 56.3358 224.844C55.9623 223.609 56.5843 222.294 57.1893 221.247L57.353 220.967C58.1165 220.524 58.9125 220.149 59.7053 219.762C64.695 217.332 69.4233 214.497 74.0483 211.424C75.7658 210.359 77.419 209.049 79.0015 207.849C99.0245 192.649 113.433 170.819 119.196 146.342C121.995 137.263 122.055 130.035 122.568 120.632C123.379 105.759 108.657 98.3819 96.7905 106.741C92.4368 109.808 91.4128 115.719 90.8428 121.005C90.6663 121.209 90.487 121.41 90.305 121.609C87.892 124.241 86.1535 123.044 84.1603 120.866C83.6373 110.907 88.5335 102.103 97.757 98.0722C100.567 96.8442 102.783 96.7442 105.762 96.5762Z" fill="#131545"/>
<path d="M105.518 77.0749C114.136 76.3909 126.342 80.3877 133.09 85.8677C137.062 89.2569 142.516 93.9552 143.742 99.1614C144.11 100.728 142.586 103.679 141.009 103.408C136.616 102.653 134.636 96.2064 130.943 93.1507C122.592 86.2407 113.677 83.1654 102.851 84.2544C89.1515 85.2652 75.31 97.1632 72.6615 110.732C70.8603 119.961 71.6143 128.806 68.3918 138.153C65.2625 147.229 61.7578 153.074 55.516 160.297C49.736 167.399 39.2038 173.564 30.6405 176.497C27.452 177.427 16.997 182.014 16.5815 176.187C16.2465 171.489 24.7153 171.299 28.2068 170.017C37.9223 166.449 46.6095 160.652 52.9498 152.474C59.1945 144.396 63.1003 134.758 64.241 124.611C64.723 120.633 64.5885 116.346 65.044 112.401C65.9423 104.626 70.407 96.4339 75.6838 90.7309C83.6063 82.1689 93.9478 77.6354 105.518 77.0749Z" fill="#131545"/>
<path d="M98.6405 19.8229C101.313 19.5167 106.9 19.6029 109.747 19.6369C136.185 20.1624 161.349 31.0939 179.778 50.0589C189.72 60.2774 196.898 72.3209 201.543 85.7202C202.503 88.4192 203.728 91.5709 203.948 94.4162C204.09 96.2692 201.908 97.7149 200.218 97.4314C199.34 97.2839 198.005 96.9904 197.588 96.1122C196.123 93.0267 195.66 89.5717 194.428 86.3944C190.388 75.6692 185.783 67.8309 178.46 59.0037C172.08 51.4592 164.479 45.0377 155.974 40.0062C131.025 25.0784 100.648 22.2864 73.3953 32.4162C70.292 33.5737 66.4275 35.5289 63.371 37.0004C60.4473 38.4079 57.1703 41.0569 53.9695 41.9194C53.2738 42.1069 52.807 41.9887 52.224 41.5569C51.3645 40.9202 50.4763 39.9579 50.3305 38.8564C50.177 38.1307 50.657 36.7479 51.25 36.2679C62.8168 26.9032 84.6585 20.7999 98.6405 19.8229Z" fill="#131545"/>
<path d="M105.894 39.2504C113.855 38.2677 125.251 40.4169 132.886 42.9342C148.982 48.1187 163.008 58.2959 172.93 71.9902C186.708 90.9124 189.618 113.828 187.47 136.566C187.365 137.667 187.233 138.743 187.063 139.836L184.045 140.033C182.548 140.342 181.338 140.667 179.863 141.086C179.88 140.944 179.898 140.802 179.915 140.66C182.725 116.259 180.893 93.6727 165.216 73.3837C155.022 60.1894 138.401 50.2142 121.963 47.2434C118.7 46.6397 115.405 46.2174 112.095 45.9789C109.597 45.8097 102.854 46.5674 103.469 41.7392C103.627 40.4944 104.851 39.8057 105.894 39.2504Z" fill="#131545"/>
<path d="M144.357 115.011C144.959 114.927 145.627 114.856 146.231 114.93C147.133 115.042 148.043 115.543 148.55 116.304C151.073 120.085 146.991 143.963 145.77 149.312C140.083 174.744 127.425 198.087 109.216 216.729C105.926 220.117 100.42 225.599 96.428 228.099C91.7955 229.637 89.6965 224.574 94.8688 220.307C125.519 195.024 142.11 156.664 142.546 117.293C142.559 116.159 143.526 115.537 144.357 115.011Z" fill="#131545"/>
<path d="M100.205 0.321183C110.02 -0.955817 130.239 1.78293 140.241 4.87168C147.993 7.76493 158.942 10.0859 165.027 15.7132C166.746 17.3027 163.759 19.6727 162.174 20.4647C158.938 19.7352 154.238 17.1014 150.787 15.7279C139.16 11.0997 127.842 8.36443 115.341 7.49493C103.169 7.22993 92.4335 7.11919 80.5945 10.3597C74.2123 12.1064 68.379 13.3889 62.2615 16.1837C60.0738 17.1832 52.5883 21.5119 50.5093 19.2372C46.2725 14.6012 54.1293 12.0809 57.226 10.7554C70.8273 4.77743 85.3765 1.24518 100.205 0.321183Z" fill="#131545"/>
<path d="M37.3023 47.4982C44.9763 46.8017 42.1345 53.3102 38.3693 56.1449C37.7333 56.6239 36.0448 58.7224 35.4285 59.4242C20.0253 76.9644 13.873 97.8809 13.568 120.9C12.7695 121.728 12.1913 122.212 11.3125 122.943C8.66604 123.192 8.44029 122.899 6.78979 120.933C6.11229 114.714 7.62554 106.083 8.41229 99.8359C8.81879 96.6099 10.107 93.0182 10.9718 89.9202C14.5668 77.0399 21.496 64.9572 30.095 54.7699C32.0368 52.4694 34.8518 49.2674 37.3023 47.4982Z" fill="#131545"/>
<path d="M188.54 33.1674C191.223 33.3302 193.163 36.0352 194.88 37.9114C201.78 45.4459 207.85 53.8289 212.638 62.8629C216.555 70.2532 219.655 78.1527 221.998 86.1762C222.735 88.7212 224.685 93.2142 223.918 95.8569C223.623 96.8724 222.175 97.3372 221.24 97.7247C215.128 97.7632 216.988 92.2629 215.43 88.1427C213.935 84.1882 212.745 79.9029 211.123 76.0167C206.658 65.5037 200.738 55.6702 193.535 46.8044C190.33 42.8524 181.588 37.5142 188.54 33.1674Z" fill="#131545"/>
<path d="M143.294 194.952C143.416 195.097 144.451 201.862 145.142 203.477C143.488 205.542 141.857 207.854 140.299 210.072C138.32 213.059 135.227 215.554 134.575 219.222C133.778 222.597 136.825 226.099 140.184 226.282C144.697 226.529 148.401 220.254 151.81 217.437C153.631 219.564 154.319 220.382 155.811 222.682C154.697 224.334 154.135 225.022 152.78 226.489C152.167 227.134 151.547 227.774 150.921 228.409C141.972 237.427 127.55 232.679 127.348 219.549C127.281 215.202 131.022 210.877 133.461 207.462C136.622 203.037 139.293 198.714 143.294 194.952Z" fill="#131545"/>
<path d="M25.8238 32.4562C27.6128 32.7042 28.4958 33.0819 29.2018 34.8604C29.5168 35.6539 29.3953 37.8494 28.8218 38.4212C20.872 46.3344 13.4333 54.9389 8.22903 64.9477C6.89728 67.5087 6.29403 68.6682 3.47578 69.4692C2.99428 69.3422 2.52703 69.2209 2.04903 69.0609C1.21278 68.7807 0.530036 68.3347 0.166036 67.5054C-0.301714 66.4394 0.324281 64.6622 0.745031 63.6747C3.58678 57.0079 20.1785 34.6727 25.8238 32.4562Z" fill="#131545"/>
<path d="M203.135 114.753C203.813 114.664 204.455 114.591 205.13 114.744C205.91 114.921 206.678 115.342 207.06 116.074C208.488 118.791 207.62 137.242 206.548 140.829C206.368 141.433 206.27 141.592 205.735 141.897L205.035 141.674C202.923 141.014 201.973 140.785 199.793 140.386C199.803 136.543 200.428 132.16 200.545 128.202C200.65 124.625 200.475 120.664 200.873 117.143C200.993 116.07 202.283 115.291 203.135 114.753Z" fill="#131545"/>
<path fill-rule="evenodd" clip-rule="evenodd" d="M236.208 185.612C234.31 161.497 213.233 143.48 189.115 145.363C164.98 147.247 146.945 168.347 148.844 192.484C150.742 216.619 171.855 234.639 195.988 232.727C220.103 230.814 238.105 209.724 236.208 185.612ZM229.183 185.862C227.425 165.602 209.598 150.589 189.333 152.304C169.011 154.027 153.945 171.919 155.708 192.237C157.472 212.557 175.395 227.584 195.71 225.779C215.965 223.979 230.94 206.119 229.183 185.862ZM206.755 174.507C208.54 174.364 210.893 174.567 211.618 176.467C212.493 178.372 208.565 182.842 207.225 184.172C206.022 185.368 203.992 187.944 201.673 190.888C197.089 196.707 191.374 203.962 188.663 204.842C186.565 204.559 183.318 201.287 180.943 198.893C180.314 198.26 179.747 197.688 179.278 197.249C178.936 196.878 178.483 196.456 177.992 195.998C175.414 193.595 171.782 190.21 177.695 188.099C179.302 187.525 185.071 192.998 187.49 195.293C187.83 195.616 188.104 195.876 188.29 196.047C189.422 194.83 192.054 191.635 194.996 188.064C199.871 182.148 205.595 175.199 206.755 174.507Z" fill="#131545"/>
</svg>
