<svg width="180" height="73" viewBox="0 0 180 73" fill="none" xmlns="http://www.w3.org/2000/svg">
<g clip-path="url(#clip0_545_322)">
<path d="M0.567017 60.9957V42.4116H10.1091C11.3285 42.4116 12.3528 42.6128 13.1759 43.0152C13.999 43.4177 14.6148 43.9603 15.0355 44.6493C15.4563 45.3383 15.6636 46.1065 15.6636 46.9601C15.6636 48.082 15.3709 48.9661 14.7856 49.6063C14.2002 50.2526 13.5296 50.6794 12.7735 50.8989V51.1244C13.2613 51.2281 13.7917 51.4415 14.371 51.7768C14.9502 52.1122 15.4441 52.5939 15.8526 53.2219C16.2611 53.8499 16.4684 54.6669 16.4684 55.6729C16.4684 56.5631 16.2611 57.4106 15.8404 58.2215C15.4197 59.0324 14.7673 59.697 13.871 60.2153C12.9747 60.7336 11.7919 60.9957 10.3164 60.9957H0.567017ZM9.10302 46.4053H5.38376V49.6428H9.10302C9.73713 49.6428 10.2188 49.4965 10.5359 49.2038C10.8529 48.9112 11.0114 48.5149 11.0114 48.0088C11.0114 47.5027 10.8529 47.1369 10.5359 46.8382C10.2188 46.5394 9.74322 46.3992 9.10302 46.3992V46.4053ZM9.45666 53.2341H5.38986V57.0021H9.45666C10.1944 57.0021 10.7371 56.8253 11.0907 56.4716C11.4443 56.118 11.6211 55.6607 11.6211 55.0876C11.6211 54.5145 11.4443 54.0694 11.0907 53.734C10.7371 53.3987 10.1944 53.2341 9.45666 53.2341Z" fill="#00002F"/>
<path d="M23.9984 60.9957V42.4116H32.1868C33.577 42.4116 34.7964 42.6372 35.8512 43.0884C36.906 43.5396 37.7291 44.2042 38.3145 45.0822C38.8998 45.9602 39.1924 47.0455 39.1924 48.332C39.1924 49.6184 38.9059 50.655 38.3266 51.533C37.7474 52.4109 36.9609 53.0755 35.9549 53.5267L39.5705 60.9835H34.272L31.132 54.2523H28.8212V60.9835H23.9984V60.9957ZM32.1076 46.5577H28.8151V50.4233H32.1076C32.7782 50.4233 33.3209 50.2586 33.7416 49.9233C34.1623 49.588 34.3696 49.1124 34.3696 48.4905C34.3696 47.8686 34.1623 47.3747 33.7416 47.0455C33.3209 46.7162 32.7782 46.5577 32.1076 46.5577Z" fill="#00002F"/>
<path d="M52.1489 60.9957V54.7949L45.5945 42.4116H50.8685L54.5573 49.844L58.2217 42.4116H63.5201L56.9657 54.7949V60.9957H52.1428H52.1489Z" fill="#00002F"/>
<path d="M75.5558 60.9957V46.5821H69.9282V42.4116H86.0002V46.5821H80.3726V60.9957H75.5497H75.5558Z" fill="#00002F"/>
<path d="M93.4083 60.9957V42.4116H106.871V46.5821H98.2311V49.5941H105.743V53.5633H98.2311V56.8253H106.999V60.9957H93.4144H93.4083Z" fill="#00002F"/>
<path d="M140 60.9957V42.4116H148.188C149.579 42.4116 150.798 42.6372 151.853 43.0884C152.908 43.5396 153.731 44.2042 154.316 45.0822C154.901 45.9602 155.194 47.0455 155.194 48.332C155.194 49.6184 154.908 50.655 154.328 51.533C153.749 52.4109 152.963 53.0755 151.957 53.5267L155.572 60.9835H150.274L147.134 54.2523H144.823V60.9835H140V60.9957ZM148.109 46.5577H144.817V50.4233H148.109C148.78 50.4233 149.323 50.2586 149.743 49.9233C150.164 49.588 150.371 49.1124 150.371 48.4905C150.371 47.8686 150.164 47.3747 149.743 47.0455C149.323 46.7162 148.78 46.5577 148.109 46.5577Z" fill="#00002F"/>
<path d="M163.428 60.9957V42.4116H168.251V49.844L173.952 42.4116H179.781L172.622 51.2769L180.006 60.9957H173.952L168.251 53.2341V60.9957H163.428Z" fill="#00002F"/>
<path d="M114.063 59.75H132.937L123.5 41.6973L114.063 59.75Z" stroke="#00002F" stroke-width="2.5"/>
<path d="M85.3113 32.8575C83.6833 32.8819 82.0554 32.9185 80.4275 32.9856C77.763 33.0953 75.0925 33.2417 72.428 33.5343C75.0925 33.827 77.763 33.9733 80.4275 34.0831C82.5371 34.1623 84.6528 34.2111 86.7624 34.2233H90.0854C92.2011 34.205 94.3107 34.1623 96.4264 34.0831C99.0908 33.9733 101.761 33.827 104.426 33.5343C101.761 33.2477 99.0908 33.0953 96.4264 32.9917C94.7984 32.9307 93.1705 32.888 91.5426 32.8636C90.9938 32.8575 90.7256 32.199 91.1036 31.8088C92.2376 30.6443 93.3595 29.4614 94.4692 28.2664C96.2801 26.3031 98.0604 24.3154 99.7432 22.2241C97.6519 23.9069 95.6642 25.6873 93.701 27.492C92.512 28.5956 91.3353 29.7114 90.1707 30.8394C89.7744 31.2235 89.1159 30.9491 89.1159 30.3943C89.1037 25.8519 89.0488 21.3034 88.9696 16.7611C88.8659 11.1761 88.7196 5.59108 88.4269 0C88.1404 5.58499 87.9879 11.1761 87.8843 16.7611C87.7989 21.3034 87.7501 25.8519 87.7379 30.3943C87.7379 30.943 87.0795 31.2174 86.6831 30.8394C85.5186 29.7114 84.3479 28.5956 83.159 27.492C81.1957 25.6812 79.208 23.9008 77.1167 22.2241C78.7995 24.3154 80.5738 26.3031 82.3846 28.2664C83.4943 29.4614 84.6162 30.6382 85.7503 31.8088C86.1344 32.199 85.86 32.8575 85.3113 32.8636V32.8575Z" fill="#00002F"/>
<path d="M0 72.3732V68.7637H2.48764V69.4161H0.749949V70.227H2.26204V70.855H0.749949V71.7208H2.51202V72.3732H0Z" fill="#00002F"/>
<path d="M6.30443 72.422C6.04226 72.422 5.79837 72.3732 5.57278 72.2695C5.34718 72.1659 5.17037 72.0135 5.03623 71.8001C4.90209 71.5867 4.83502 71.3123 4.83502 70.9769V68.7637H5.58497V70.9769C5.58497 71.1842 5.64594 71.3611 5.76179 71.5013C5.87763 71.6415 6.06055 71.7147 6.30443 71.7147C6.54832 71.7147 6.72514 71.6415 6.84098 71.5013C6.95683 71.3611 7.0117 71.1842 7.0117 70.9769V68.7637H7.76775V70.9769C7.76775 71.3123 7.70068 71.5928 7.56654 71.8001C7.43241 72.0074 7.24949 72.1659 7.03 72.2695C6.8105 72.3732 6.56052 72.422 6.30443 72.422Z" fill="#00002F"/>
<path d="M10.1457 72.3732V68.7637H11.609C11.8772 68.7637 12.1028 68.8125 12.2919 68.9039C12.4809 69.0015 12.6272 69.1295 12.7308 69.2941C12.8345 69.4587 12.8833 69.6539 12.8833 69.8673C12.8833 70.105 12.8223 70.3123 12.7004 70.4892C12.5784 70.666 12.4077 70.794 12.1882 70.8794L12.9747 72.3732H12.1394L11.42 70.983H10.8895V72.3732H10.1396H10.1457ZM11.5968 69.4161H10.8956V70.3733H11.5968C11.7614 70.3733 11.8894 70.3306 11.987 70.2392C12.0845 70.1477 12.1272 70.038 12.1272 69.9038C12.1272 69.7697 12.0785 69.6539 11.987 69.5624C11.8955 69.4709 11.7614 69.4222 11.5968 69.4222V69.4161Z" fill="#00002F"/>
<path d="M16.8586 72.4219C16.5599 72.4219 16.2977 72.367 16.066 72.2634C15.8404 72.1597 15.6453 72.0134 15.4929 71.8366C15.3404 71.6598 15.2246 71.4586 15.1453 71.2391C15.0722 71.0196 15.0295 70.794 15.0295 70.5623C15.0295 70.3306 15.0661 70.105 15.1453 69.8855C15.2246 69.666 15.3343 69.4709 15.4929 69.2941C15.6453 69.1173 15.8404 68.977 16.066 68.8734C16.2916 68.7697 16.5599 68.7148 16.8586 68.7148C17.1574 68.7148 17.4257 68.7697 17.6513 68.8734C17.8768 68.977 18.072 69.1173 18.2244 69.2941C18.3768 69.4709 18.4927 69.666 18.5658 69.8855C18.639 70.105 18.6817 70.3306 18.6817 70.5623C18.6817 70.794 18.6451 71.0196 18.5658 71.2391C18.4866 71.4586 18.3768 71.6598 18.2244 71.8366C18.072 72.0134 17.8829 72.1536 17.6513 72.2634C17.4257 72.367 17.1574 72.4219 16.8586 72.4219ZM16.8586 71.7451C17.0842 71.7451 17.2793 71.6903 17.4318 71.5744C17.5903 71.4586 17.7061 71.3122 17.7854 71.1354C17.8647 70.9586 17.9012 70.7635 17.9012 70.5684C17.9012 70.3733 17.8647 70.1843 17.7854 70.0013C17.7061 69.8245 17.5903 69.6782 17.4318 69.5623C17.2732 69.4465 17.0842 69.3916 16.8586 69.3916C16.633 69.3916 16.4379 69.4465 16.2855 69.5623C16.1331 69.6782 16.0172 69.8245 15.938 70.0013C15.8587 70.1782 15.8221 70.3672 15.8221 70.5684C15.8221 70.7696 15.8587 70.9586 15.938 71.1354C16.0172 71.3183 16.1331 71.4647 16.2855 71.5744C16.4379 71.6903 16.633 71.7451 16.8586 71.7451Z" fill="#00002F"/>
<path d="M20.9132 72.3732V68.7637H22.4009C22.6997 68.7637 22.9436 68.8246 23.1387 68.9405C23.3338 69.0563 23.4862 69.2088 23.5838 69.3917C23.6813 69.5746 23.7301 69.7636 23.7301 69.9648C23.7301 70.166 23.6813 70.3672 23.5838 70.5501C23.4862 70.7331 23.3338 70.8855 23.1387 71.0013C22.9436 71.1172 22.6936 71.1781 22.4009 71.1781H21.6632V72.3793H20.9132V72.3732ZM22.4009 69.4222H21.6632V70.5197H22.4009C22.529 70.5197 22.6326 70.4953 22.718 70.4404C22.8033 70.3855 22.8643 70.3184 22.9131 70.2331C22.9558 70.1477 22.9801 70.0624 22.9801 69.9648C22.9801 69.8673 22.9558 69.788 22.9131 69.7026C22.8704 69.6173 22.8033 69.5502 22.718 69.4953C22.6326 69.4405 22.529 69.4161 22.4009 69.4161V69.4222Z" fill="#00002F"/>
<path d="M25.3763 72.3732L26.6079 68.7637H27.6079L28.8395 72.3732H28.0469L27.8152 71.6659H26.4006L26.1689 72.3732H25.3763ZM26.614 71.0135H27.6079L27.1079 69.5075L26.6079 71.0135H26.614Z" fill="#00002F"/>
<path d="M32.2539 72.4217C32.0222 72.4217 31.821 72.3912 31.6564 72.3363C31.4918 72.2814 31.3576 72.2083 31.2479 72.1168C31.1381 72.0254 31.0528 71.9339 30.9857 71.8363C30.9186 71.7388 30.8699 71.6412 30.8394 71.5559C30.8089 71.4705 30.7845 71.3669 30.7662 71.251H31.5283C31.5588 71.3608 31.5954 71.4522 31.6442 71.5254C31.693 71.5986 31.7661 71.6595 31.8698 71.7144C31.9734 71.7693 32.1076 71.7937 32.2783 71.7937C32.4917 71.7937 32.6441 71.751 32.7478 71.6595C32.8514 71.5681 32.9002 71.4644 32.9002 71.3425C32.9002 71.2327 32.8636 71.1413 32.7844 71.0803C32.7051 71.0193 32.5893 70.9645 32.4307 70.934L31.9491 70.8425C31.7539 70.8059 31.571 70.7511 31.4064 70.6718C31.2418 70.5925 31.1015 70.4828 30.9979 70.3486C30.8942 70.2084 30.8394 70.0316 30.8394 69.8121C30.8394 69.5926 30.8942 69.3975 31.004 69.2329C31.1137 69.0682 31.2723 68.9402 31.4674 68.8548C31.6686 68.7634 31.9003 68.7207 32.1746 68.7207C32.4307 68.7207 32.638 68.7573 32.8088 68.8305C32.9734 68.9036 33.1075 68.9951 33.2112 69.0987C33.3087 69.2024 33.3819 69.3121 33.4307 69.4158C33.4794 69.5255 33.516 69.6475 33.5465 69.7938H32.8027C32.7783 69.7023 32.7478 69.6292 32.7051 69.5682C32.6624 69.5072 32.6014 69.4585 32.51 69.4097C32.4246 69.367 32.3088 69.3426 32.1564 69.3426C31.9491 69.3426 31.8027 69.3853 31.7113 69.4767C31.6198 69.5682 31.5771 69.6658 31.5771 69.7694C31.5771 69.8731 31.6198 69.9584 31.7113 70.0194C31.8027 70.0804 31.9186 70.123 32.0649 70.1535L32.5771 70.2572C32.7722 70.2938 32.949 70.3547 33.1136 70.4401C33.2782 70.5255 33.4063 70.6352 33.5038 70.7815C33.6014 70.9218 33.6502 71.0986 33.6502 71.3059C33.6502 71.5132 33.5953 71.7144 33.4916 71.8851C33.3819 72.0558 33.2234 72.19 33.0161 72.2875C32.8088 72.3851 32.5527 72.4339 32.2478 72.4339L32.2539 72.4217Z" fill="#00002F"/>
<path d="M38.6925 72.3732V68.7637H40.1802C40.479 68.7637 40.7229 68.8246 40.918 68.9405C41.1131 69.0563 41.2655 69.2088 41.3631 69.3917C41.4606 69.5746 41.5094 69.7636 41.5094 69.9648C41.5094 70.166 41.4606 70.3672 41.3631 70.5501C41.2655 70.7331 41.1131 70.8855 40.918 71.0013C40.7229 71.1172 40.4729 71.1781 40.1802 71.1781H39.4425V72.3793H38.6925V72.3732ZM40.1802 69.4222H39.4425V70.5197H40.1802C40.3083 70.5197 40.4119 70.4953 40.4973 70.4404C40.5826 70.3855 40.6436 70.3184 40.6924 70.2331C40.735 70.1477 40.7594 70.0624 40.7594 69.9648C40.7594 69.8673 40.735 69.788 40.6924 69.7026C40.6497 69.6173 40.5826 69.5502 40.4973 69.4953C40.4119 69.4405 40.3083 69.4161 40.1802 69.4161V69.4222Z" fill="#00002F"/>
<path d="M45.3994 72.4219C45.1006 72.4219 44.8384 72.367 44.6067 72.2634C44.3811 72.1597 44.186 72.0134 44.0336 71.8366C43.8812 71.6598 43.7653 71.4586 43.6861 71.2391C43.6129 71.0196 43.5702 70.794 43.5702 70.5623C43.5702 70.3306 43.6068 70.105 43.6861 69.8855C43.7653 69.666 43.8751 69.4709 44.0336 69.2941C44.186 69.1173 44.3811 68.977 44.6067 68.8734C44.8323 68.7697 45.1006 68.7148 45.3994 68.7148C45.6981 68.7148 45.9664 68.7697 46.192 68.8734C46.4176 68.977 46.6127 69.1173 46.7651 69.2941C46.9176 69.4709 47.0334 69.666 47.1066 69.8855C47.1797 70.105 47.2224 70.3306 47.2224 70.5623C47.2224 70.794 47.1858 71.0196 47.1066 71.2391C47.0273 71.4586 46.9176 71.6598 46.7651 71.8366C46.6127 72.0134 46.4237 72.1536 46.192 72.2634C45.9664 72.367 45.6981 72.4219 45.3994 72.4219ZM45.3994 71.7451C45.625 71.7451 45.8201 71.6903 45.9725 71.5744C46.131 71.4586 46.2469 71.3122 46.3261 71.1354C46.4054 70.9586 46.442 70.7635 46.442 70.5684C46.442 70.3733 46.4054 70.1843 46.3261 70.0013C46.2469 69.8245 46.131 69.6782 45.9725 69.5623C45.814 69.4465 45.625 69.3916 45.3994 69.3916C45.1738 69.3916 44.9787 69.4465 44.8262 69.5623C44.6738 69.6782 44.558 69.8245 44.4787 70.0013C44.3994 70.1782 44.3629 70.3672 44.3629 70.5684C44.3629 70.7696 44.3994 70.9586 44.4787 71.1354C44.558 71.3183 44.6738 71.4647 44.8262 71.5744C44.9787 71.6903 45.1738 71.7451 45.3994 71.7451Z" fill="#00002F"/>
<path d="M50.0637 72.3732L49.1674 68.7637H49.9173L50.5575 71.3854L51.2282 68.7637H51.9965L52.6672 71.3793L53.3013 68.7637H54.0573L53.1549 72.3732H52.1977L51.6123 70.0746L51.0331 72.3732H50.0698H50.0637Z" fill="#00002F"/>
<path d="M56.2279 72.3732V68.7637H58.7155V69.4161H56.9779V70.227H58.4899V70.855H56.9779V71.7208H58.7399V72.3732H56.2279Z" fill="#00002F"/>
<path d="M61.063 72.3732V68.7637H62.5263C62.7945 68.7637 63.0201 68.8125 63.2091 68.9039C63.3982 69.0015 63.5445 69.1295 63.6481 69.2941C63.7518 69.4587 63.8006 69.6539 63.8006 69.8673C63.8006 70.105 63.7396 70.3123 63.6177 70.4892C63.4957 70.666 63.325 70.794 63.1055 70.8794L63.892 72.3732H63.0567L62.3373 70.983H61.8068V72.3732H61.0569H61.063ZM62.5202 69.4161H61.819V70.3733H62.5202C62.6848 70.3733 62.8128 70.3306 62.9104 70.2392C63.0079 70.1477 63.0506 70.038 63.0506 69.9038C63.0506 69.7697 63.0018 69.6539 62.9104 69.5624C62.8189 69.4709 62.6848 69.4222 62.5202 69.4222V69.4161Z" fill="#00002F"/>
<path d="M66.2455 72.3732V68.7637H66.9955V70.2026H68.3978V68.7637H69.1478V72.3732H68.3978V70.855H66.9955V72.3732H66.2455Z" fill="#00002F"/>
<path d="M73.2085 72.4219C72.9097 72.4219 72.6475 72.367 72.4158 72.2634C72.1903 72.1597 71.9951 72.0134 71.8427 71.8366C71.6903 71.6598 71.5744 71.4586 71.4952 71.2391C71.422 71.0196 71.3793 70.794 71.3793 70.5623C71.3793 70.3306 71.4159 70.105 71.4952 69.8855C71.5744 69.666 71.6842 69.4709 71.8427 69.2941C71.9951 69.1173 72.1903 68.977 72.4158 68.8734C72.6414 68.7697 72.9097 68.7148 73.2085 68.7148C73.5072 68.7148 73.7755 68.7697 74.0011 68.8734C74.2267 68.977 74.4218 69.1173 74.5742 69.2941C74.7267 69.4709 74.8425 69.666 74.9157 69.8855C74.9888 70.105 75.0315 70.3306 75.0315 70.5623C75.0315 70.794 74.9949 71.0196 74.9157 71.2391C74.8364 71.4586 74.7267 71.6598 74.5742 71.8366C74.4218 72.0134 74.2328 72.1536 74.0011 72.2634C73.7755 72.367 73.5072 72.4219 73.2085 72.4219ZM73.2085 71.7451C73.4341 71.7451 73.6292 71.6903 73.7816 71.5744C73.9401 71.4586 74.056 71.3122 74.1352 71.1354C74.2145 70.9586 74.2511 70.7635 74.2511 70.5684C74.2511 70.3733 74.2145 70.1843 74.1352 70.0013C74.056 69.8245 73.9401 69.6782 73.7816 69.5623C73.6231 69.4465 73.4341 69.3916 73.2085 69.3916C72.9829 69.3916 72.7878 69.4465 72.6353 69.5623C72.4829 69.6782 72.3671 69.8245 72.2878 70.0013C72.2085 70.1782 72.172 70.3672 72.172 70.5684C72.172 70.7696 72.2085 70.9586 72.2878 71.1354C72.3671 71.3183 72.4829 71.4647 72.6353 71.5744C72.7878 71.6903 72.9829 71.7451 73.2085 71.7451Z" fill="#00002F"/>
<path d="M78.7386 72.422C78.4764 72.422 78.2325 72.3732 78.0069 72.2695C77.7813 72.1659 77.6045 72.0135 77.4704 71.8001C77.3362 71.5867 77.2692 71.3123 77.2692 70.9769V68.7637H78.0191V70.9769C78.0191 71.1842 78.0801 71.3611 78.1959 71.5013C78.3118 71.6415 78.4947 71.7147 78.7386 71.7147C78.9825 71.7147 79.1593 71.6415 79.2751 71.5013C79.391 71.3611 79.4458 71.1842 79.4458 70.9769V68.7637H80.2019V70.9769C80.2019 71.3123 80.1348 71.5928 80.0007 71.8001C79.8666 72.0074 79.6836 72.1659 79.4641 72.2695C79.2446 72.3732 78.9947 72.422 78.7386 72.422Z" fill="#00002F"/>
<path d="M83.9211 72.4217C83.6895 72.4217 83.4883 72.3912 83.3236 72.3363C83.159 72.2814 83.0249 72.2083 82.9151 72.1168C82.8054 72.0254 82.72 71.9339 82.6529 71.8363C82.5859 71.7388 82.5371 71.6412 82.5066 71.5559C82.4761 71.4705 82.4517 71.3669 82.4334 71.251H83.1956C83.2261 71.3608 83.2627 71.4522 83.3114 71.5254C83.3602 71.5986 83.4334 71.6595 83.537 71.7144C83.6407 71.7693 83.7748 71.7937 83.9455 71.7937C84.1589 71.7937 84.3114 71.751 84.415 71.6595C84.5187 71.5681 84.5674 71.4644 84.5674 71.3425C84.5674 71.2327 84.5309 71.1413 84.4516 71.0803C84.3723 71.0193 84.2565 70.9645 84.098 70.934L83.6163 70.8425C83.4212 70.8059 83.2383 70.7511 83.0736 70.6718C82.909 70.5925 82.7688 70.4828 82.6651 70.3486C82.5615 70.2084 82.5066 70.0316 82.5066 69.8121C82.5066 69.5926 82.5615 69.3975 82.6712 69.2329C82.781 69.0682 82.9395 68.9402 83.1346 68.8548C83.3358 68.7634 83.5675 68.7207 83.8419 68.7207C84.098 68.7207 84.3053 68.7573 84.476 68.8305C84.6406 68.9036 84.7748 68.9951 84.8784 69.0987C84.976 69.2024 85.0491 69.3121 85.0979 69.4158C85.1467 69.5255 85.1833 69.6475 85.2137 69.7938H84.4699C84.4455 69.7023 84.415 69.6292 84.3723 69.5682C84.3297 69.5072 84.2687 69.4585 84.1772 69.4097C84.0919 69.367 83.976 69.3426 83.8236 69.3426C83.6163 69.3426 83.47 69.3853 83.3785 69.4767C83.287 69.5682 83.2444 69.6658 83.2444 69.7694C83.2444 69.8731 83.287 69.9584 83.3785 70.0194C83.47 70.0804 83.5858 70.123 83.7321 70.1535L84.2443 70.2572C84.4394 70.2938 84.6162 70.3547 84.7808 70.4401C84.9455 70.5255 85.0735 70.6352 85.1711 70.7815C85.2686 70.9218 85.3174 71.0986 85.3174 71.3059C85.3174 71.5132 85.2625 71.7144 85.1589 71.8851C85.0491 72.0558 84.8906 72.19 84.6833 72.2875C84.476 72.3851 84.2199 72.4339 83.9151 72.4339L83.9211 72.4217Z" fill="#00002F"/>
<path d="M87.5307 72.3732V68.7637H90.0183V69.4161H88.2806V70.227H89.7927V70.855H88.2806V71.7208H90.0427V72.3732H87.5307Z" fill="#00002F"/>
<path d="M95.1948 72.3732V68.7637H97.719V69.4161H95.9508V70.3611H97.4995V70.9891H95.9508V72.3671H95.2009L95.1948 72.3732Z" fill="#00002F"/>
<path d="M101.536 72.4223C101.274 72.4223 101.03 72.3735 100.804 72.2698C100.579 72.1662 100.402 72.0138 100.268 71.8004C100.133 71.587 100.066 71.3126 100.066 70.9772V68.764H100.816V70.9772C100.816 71.1845 100.877 71.3614 100.993 71.5016C101.109 71.6418 101.292 71.715 101.536 71.715C101.78 71.715 101.963 71.6418 102.072 71.5016C102.188 71.3614 102.243 71.1845 102.243 70.9772V68.764H102.999V70.9772C102.999 71.3126 102.932 71.5931 102.798 71.8004C102.664 72.0138 102.481 72.1662 102.261 72.2698C102.042 72.3735 101.792 72.4223 101.536 72.4223ZM100.969 68.4652C100.847 68.4652 100.749 68.4225 100.67 68.3433C100.591 68.264 100.548 68.1665 100.548 68.0567C100.548 67.947 100.585 67.8494 100.67 67.7701C100.755 67.6909 100.847 67.6543 100.969 67.6543C101.091 67.6543 101.188 67.6909 101.268 67.7701C101.347 67.8494 101.389 67.947 101.389 68.0567C101.389 68.1665 101.347 68.264 101.268 68.3433C101.188 68.4225 101.091 68.4652 100.969 68.4652ZM102.078 68.4652C101.957 68.4652 101.853 68.4225 101.774 68.3433C101.694 68.264 101.658 68.1665 101.658 68.0567C101.658 67.947 101.694 67.8494 101.774 67.7701C101.853 67.6909 101.95 67.6543 102.078 67.6543C102.207 67.6543 102.298 67.6909 102.377 67.7701C102.456 67.8494 102.499 67.947 102.499 68.0567C102.499 68.1665 102.456 68.264 102.377 68.3433C102.298 68.4225 102.2 68.4652 102.078 68.4652Z" fill="#00002F"/>
<path d="M105.389 72.3732V68.7637H106.853C107.121 68.7637 107.346 68.8125 107.535 68.9039C107.724 69.0015 107.871 69.1295 107.974 69.2941C108.078 69.4587 108.127 69.6539 108.127 69.8673C108.127 70.105 108.066 70.3123 107.944 70.4892C107.822 70.666 107.651 70.794 107.432 70.8794L108.218 72.3732H107.383L106.664 70.983H106.133V72.3732H105.383H105.389ZM106.846 69.4161H106.145V70.3733H106.846C107.011 70.3733 107.145 70.3306 107.237 70.2392C107.334 70.1477 107.377 70.038 107.377 69.9038C107.377 69.7697 107.328 69.6539 107.237 69.5624C107.145 69.4709 107.011 69.4222 106.846 69.4222V69.4161Z" fill="#00002F"/>
<path d="M113.401 72.3732V68.7637H114.767C115.059 68.7637 115.315 68.8124 115.541 68.9161C115.767 69.0198 115.949 69.1539 116.096 69.3307C116.242 69.5014 116.352 69.6965 116.425 69.9099C116.498 70.1233 116.535 70.3428 116.535 70.5684C116.535 70.794 116.498 71.0135 116.425 71.2269C116.352 71.4403 116.242 71.6354 116.096 71.8061C115.949 71.9769 115.767 72.1171 115.541 72.2208C115.315 72.3244 115.059 72.3732 114.767 72.3732H113.401ZM114.73 69.4222H114.151V71.7025H114.73C114.968 71.7025 115.163 71.6476 115.315 71.5379C115.468 71.4281 115.584 71.2818 115.663 71.1111C115.742 70.9404 115.779 70.7513 115.779 70.5623C115.779 70.3733 115.742 70.1904 115.663 70.0197C115.59 69.8429 115.474 69.7026 115.315 69.5929C115.163 69.4831 114.968 69.4222 114.73 69.4222Z" fill="#00002F"/>
<path d="M118.394 72.3732L119.626 68.7637H120.626L121.858 72.3732H121.065L120.833 71.6659H119.419L119.187 72.3732H118.394ZM119.626 71.0135H120.62L120.12 69.5075L119.62 71.0135H119.626Z" fill="#00002F"/>
<path d="M124.498 72.3732V69.4161H123.388V68.7637H126.351V69.4161H125.242V72.3732H124.492H124.498Z" fill="#00002F"/>
<path d="M128.589 72.3732V68.7637H131.077V69.4161H129.339V70.227H130.851V70.855H129.339V71.7208H131.101V72.3732H128.589Z" fill="#00002F"/>
<path d="M133.424 72.3732V68.7637H134.113L135.668 71.0684V68.7637H136.411V72.3732H135.716L134.168 70.1355V72.3732H133.424Z" fill="#00002F"/>
<path d="M138.783 72.3732V68.7637H140.247C140.515 68.7637 140.74 68.8125 140.929 68.9039C141.118 69.0015 141.265 69.1295 141.368 69.2941C141.472 69.4587 141.521 69.6539 141.521 69.8673C141.521 70.105 141.46 70.3123 141.338 70.4892C141.216 70.666 141.045 70.794 140.826 70.8794L141.612 72.3732H140.777L140.058 70.983H139.527V72.3732H138.777H138.783ZM140.24 69.4161H139.539V70.3733H140.24C140.405 70.3733 140.539 70.3306 140.631 70.2392C140.728 70.1477 140.771 70.038 140.771 69.9038C140.771 69.7697 140.722 69.6539 140.631 69.5624C140.539 69.4709 140.405 69.4222 140.24 69.4222V69.4161Z" fill="#00002F"/>
<path d="M143.966 72.3732V68.7637H146.454V69.4161H144.716V70.227H146.228V70.855H144.716V71.7208H146.478V72.3732H143.966Z" fill="#00002F"/>
<path d="M150.13 72.4217C149.898 72.4217 149.697 72.3912 149.533 72.3363C149.368 72.2814 149.234 72.2083 149.124 72.1168C149.014 72.0254 148.929 71.9339 148.862 71.8363C148.795 71.7388 148.752 71.6412 148.716 71.5559C148.679 71.4705 148.661 71.3669 148.642 71.251H149.405C149.435 71.3608 149.472 71.4522 149.52 71.5254C149.569 71.5986 149.642 71.6595 149.746 71.7144C149.85 71.7693 149.984 71.7937 150.154 71.7937C150.368 71.7937 150.52 71.751 150.624 71.6595C150.728 71.5681 150.776 71.4644 150.776 71.3425C150.776 71.2327 150.74 71.1413 150.661 71.0803C150.587 71.0132 150.465 70.9645 150.307 70.934L149.825 70.8425C149.63 70.8059 149.447 70.7511 149.283 70.6718C149.118 70.5925 148.978 70.4828 148.874 70.3486C148.77 70.2145 148.716 70.0316 148.716 69.8121C148.716 69.5926 148.77 69.3975 148.88 69.2329C148.99 69.0682 149.148 68.9402 149.344 68.8548C149.545 68.7634 149.776 68.7207 150.051 68.7207C150.307 68.7207 150.514 68.7573 150.685 68.8305C150.856 68.9036 150.984 68.9951 151.087 69.0987C151.185 69.2024 151.258 69.3121 151.307 69.4158C151.356 69.5255 151.392 69.6475 151.423 69.7938H150.679C150.654 69.7023 150.624 69.6292 150.581 69.5682C150.539 69.5072 150.478 69.4585 150.386 69.4097C150.301 69.367 150.185 69.3426 150.033 69.3426C149.825 69.3426 149.679 69.3853 149.587 69.4767C149.496 69.5682 149.453 69.6658 149.453 69.7694C149.453 69.8731 149.496 69.9584 149.587 70.0194C149.679 70.0804 149.795 70.123 149.941 70.1535L150.453 70.2572C150.648 70.2938 150.825 70.3547 150.99 70.4401C151.154 70.5255 151.282 70.6352 151.38 70.7815C151.478 70.9218 151.526 71.0986 151.526 71.3059C151.526 71.5132 151.471 71.7144 151.368 71.8851C151.264 72.0558 151.106 72.19 150.892 72.2875C150.685 72.3851 150.429 72.4339 150.124 72.4339L150.13 72.4217Z" fill="#00002F"/>
<path d="M153.74 72.3732V68.7637H154.49V72.3732H153.74Z" fill="#00002F"/>
<path d="M156.855 72.3732V68.7637H157.605V71.7208H159.373V72.3732H156.855Z" fill="#00002F"/>
<path d="M161.702 72.3732V68.7637H162.452V72.3732H161.702Z" fill="#00002F"/>
<path d="M164.818 72.3732V68.7637H167.306V69.4161H165.568V70.227H167.08V70.855H165.568V71.7208H167.33V72.3732H164.818Z" fill="#00002F"/>
<path d="M169.653 72.3732V68.7637H170.342L171.897 71.0684V68.7637H172.641V72.3732H171.946L170.397 70.1355V72.3732H169.653Z" fill="#00002F"/>
<path d="M174.915 72.3732V71.8366L176.708 69.4222H174.915V68.7637H177.683V69.2941L175.891 71.7147H177.683V72.3732H174.915Z" fill="#00002F"/>
</g>
<defs>
<clipPath id="clip0_545_322">
<rect width="180" height="72.4219" fill="white"/>
</clipPath>
</defs>
</svg>
