<svg width="65" height="65" viewBox="0 0 65 65" fill="none" xmlns="http://www.w3.org/2000/svg">
<g clip-path="url(#clip0_512_1918)">
<mask id="mask0_512_1918" style="mask-type:luminance" maskUnits="userSpaceOnUse" x="0" y="0" width="65" height="65">
<path d="M64.29 0H0V64.29H64.29V0Z" fill="white"/>
</mask>
<g mask="url(#mask0_512_1918)">
<path d="M11.75 34.9001C13.27 34.9001 14.5 33.6701 14.5 32.1501C14.5 30.6301 13.27 29.4001 11.75 29.4001C10.23 29.4001 9 30.6301 9 32.1501C9 33.6701 10.23 34.9001 11.75 34.9001Z" fill="#161C23"/>
<path d="M21.61 34.9001C23.13 34.9001 24.36 33.6701 24.36 32.1501C24.36 30.6301 23.13 29.4001 21.61 29.4001C20.09 29.4001 18.86 30.6301 18.86 32.1501C18.86 33.6701 20.09 34.9001 21.61 34.9001Z" fill="#161C23"/>
<path d="M41.33 34.9001C42.85 34.9001 44.08 33.6701 44.08 32.1501C44.08 30.6301 42.85 29.4001 41.33 29.4001C39.81 29.4001 38.58 30.6301 38.58 32.1501C38.58 33.6701 39.81 34.9001 41.33 34.9001Z" fill="#161C23"/>
<path d="M31.47 34.9001C32.99 34.9001 34.22 33.6701 34.22 32.1501C34.22 30.6301 32.99 29.4001 31.47 29.4001C29.95 29.4001 28.72 30.6301 28.72 32.1501C28.72 33.6701 29.95 34.9001 31.47 34.9001Z" fill="#161C23"/>
<path d="M51.19 34.9001C52.71 34.9001 53.94 33.6701 53.94 32.1501C53.94 30.6301 52.71 29.4001 51.19 29.4001C49.67 29.4001 48.44 30.6301 48.44 32.1501C48.44 33.6701 49.67 34.9001 51.19 34.9001Z" fill="#161C23"/>
<path d="M32.15 63.9501C49.72 63.9501 63.96 49.7101 63.96 32.1401C63.96 14.5701 49.71 0.340088 32.15 0.340088C14.59 0.340088 0.340027 14.5801 0.340027 32.1501C0.340027 49.7201 14.58 63.9601 32.15 63.9601V63.9501Z" stroke="#00002F" stroke-width="0.68"/>
</g>
</g>
<defs>
<clipPath id="clip0_512_1918">
<rect width="64.29" height="64.29" fill="white"/>
</clipPath>
</defs>
</svg>
