<svg width="36" height="36" viewBox="0 0 36 36" fill="none" xmlns="http://www.w3.org/2000/svg">
<path d="M17.75 34.7447C27.1398 34.7447 34.75 27.1345 34.75 17.7447C34.75 8.35484 27.1345 0.75 17.75 0.75C8.36553 0.75 0.75 8.36019 0.75 17.75C0.75 27.1398 8.36019 34.75 17.75 34.75V34.7447Z" fill="#00002F" stroke="#E2C649" stroke-width="1.5"/>
<path d="M8.09625 19.4425C8.84036 19.4425 9.4425 18.8404 9.4425 18.0963C9.4425 17.3521 8.84036 16.75 8.09625 16.75C7.35214 16.75 6.75 17.3521 6.75 18.0963C6.75 18.8404 7.35214 19.4425 8.09625 19.4425Z" fill="#E2C649"/>
<path d="M12.9236 19.4425C13.6678 19.4425 14.2699 18.8404 14.2699 18.0963C14.2699 17.3521 13.6678 16.75 12.9236 16.75C12.1795 16.75 11.5774 17.3521 11.5774 18.0963C11.5774 18.8404 12.1795 19.4425 12.9236 19.4425Z" fill="#E2C649"/>
<path d="M22.5772 19.4425C23.3213 19.4425 23.9235 18.8404 23.9235 18.0963C23.9235 17.3521 23.3213 16.75 22.5772 16.75C21.8331 16.75 21.231 17.3521 21.231 18.0963C21.231 18.8404 21.8331 19.4425 22.5772 19.4425Z" fill="#E2C649"/>
<path d="M17.7496 19.4425C18.4937 19.4425 19.0958 18.8404 19.0958 18.0963C19.0958 17.3521 18.4937 16.75 17.7496 16.75C17.0055 16.75 16.4033 17.3521 16.4033 18.0963C16.4033 18.8404 17.0055 19.4425 17.7496 19.4425Z" fill="#E2C649"/>
<path d="M27.4039 19.4425C28.148 19.4425 28.7501 18.8404 28.7501 18.0963C28.7501 17.3521 28.148 16.75 27.4039 16.75C26.6598 16.75 26.0576 17.3521 26.0576 18.0963C26.0576 18.8404 26.6598 19.4425 27.4039 19.4425Z" fill="#E2C649"/>
</svg>
