<svg width="61" height="60" viewBox="0 0 61 60" fill="none" xmlns="http://www.w3.org/2000/svg">
<mask id="mask0_509_1904" style="mask-type:luminance" maskUnits="userSpaceOnUse" x="0" y="0" width="61" height="60">
<path d="M60.3 0H0V59.85H60.3V0Z" fill="white"/>
</mask>
<g mask="url(#mask0_509_1904)">
<path d="M18.88 49.9999C17.57 48.6999 17.57 46.5899 18.88 45.2799C20.19 43.9799 22.32 43.9799 23.63 45.2799C24.94 46.5799 24.94 48.6999 23.63 49.9999C22.32 51.2999 20.19 51.2999 18.88 49.9999ZM9.93001 41.1199C8.62001 39.8199 8.62001 37.7099 9.93001 36.3999C11.24 35.0999 13.37 35.0999 14.68 36.3999C15.99 37.6999 15.99 39.8199 14.68 41.1199C13.37 42.4199 11.24 42.4199 9.93001 41.1199ZM0.990007 32.2399C-0.319993 30.9399 -0.319993 28.8299 0.990007 27.5199C2.30001 26.2199 4.43001 26.2199 5.74001 27.5199C7.05001 28.8199 7.05001 30.9299 5.74001 32.2399C4.43001 33.5399 2.30001 33.5399 0.990007 32.2399ZM36.74 50.0299C35.43 48.7299 35.43 46.6099 36.74 45.3099C38.05 44.0099 40.18 44.0099 41.49 45.3099C42.8 46.6099 42.8 48.7299 41.49 50.0299C40.18 51.3299 38.05 51.3299 36.74 50.0299ZM45.65 41.1799C44.34 39.8799 44.34 37.7599 45.65 36.4599C46.96 35.1599 49.09 35.1599 50.4 36.4599C51.71 37.7599 51.71 39.8799 50.4 41.1799C49.09 42.4799 46.96 42.4799 45.65 41.1799ZM54.57 32.3299C53.26 31.0299 53.26 28.9099 54.57 27.6099C55.88 26.3099 58.01 26.3099 59.32 27.6099C60.63 28.9099 60.63 31.0199 59.32 32.3299C58.01 33.6299 55.88 33.6299 54.57 32.3299ZM27.79 41.1499C26.48 39.8499 26.48 37.7299 27.79 36.4299C29.1 35.1299 31.23 35.1299 32.54 36.4299C33.85 37.7299 33.85 39.8499 32.54 41.1499C31.23 42.4499 29.1 42.4499 27.79 41.1499ZM36.71 32.2999C35.4 30.9999 35.4 28.8899 36.71 27.5799C38.02 26.2799 40.15 26.2799 41.46 27.5799C42.77 28.8799 42.77 30.9999 41.46 32.2999C40.15 33.5999 38.02 33.5999 36.71 32.2999ZM45.62 23.4499C44.31 22.1499 44.31 20.0299 45.62 18.7299C46.93 17.4299 49.06 17.4299 50.37 18.7299C51.68 20.0299 51.68 22.1399 50.37 23.4499C49.06 24.7499 46.93 24.7499 45.62 23.4499ZM18.85 32.2699C17.54 30.9699 17.54 28.8499 18.85 27.5499C20.16 26.2499 22.29 26.2499 23.6 27.5499C24.91 28.8499 24.91 30.9699 23.6 32.2699C22.29 33.5699 20.16 33.5699 18.85 32.2699ZM27.76 23.4199C26.45 22.1199 26.45 19.9999 27.76 18.6999C29.07 17.3999 31.2 17.3999 32.52 18.6999C33.83 19.9999 33.83 22.1199 32.52 23.4199C31.21 24.7199 29.08 24.7199 27.76 23.4199ZM36.68 14.5699C35.37 13.2699 35.37 11.1499 36.68 9.84988C37.99 8.54988 40.12 8.54988 41.43 9.84988C42.74 11.1499 42.74 13.2699 41.43 14.5699C40.12 15.8699 37.99 15.8699 36.68 14.5699ZM9.90001 23.3899C8.59001 22.0899 8.59001 19.9699 9.90001 18.6699C11.21 17.3699 13.34 17.3699 14.65 18.6699C15.96 19.9699 15.96 22.0899 14.65 23.3899C13.34 24.6899 11.21 24.6899 9.90001 23.3899ZM18.82 14.5399C17.51 13.2399 17.51 11.1299 18.82 9.81988C20.13 8.51988 22.26 8.51988 23.57 9.81988C24.88 11.1199 24.88 13.2399 23.57 14.5399C22.26 15.8399 20.13 15.8399 18.82 14.5399ZM27.73 5.69988C26.42 4.39988 26.42 2.27988 27.73 0.979883C29.04 -0.320117 31.17 -0.320117 32.48 0.979883C33.79 2.27988 33.79 4.39988 32.48 5.69988C31.17 6.99988 29.04 6.99988 27.73 5.69988ZM27.82 58.8799C26.51 57.5799 26.51 55.4599 27.82 54.1599C29.13 52.8599 31.26 52.8599 32.57 54.1599C33.88 55.4599 33.88 57.5699 32.57 58.8799C31.26 60.1799 29.13 60.1799 27.82 58.8799Z" fill="#00002F"/>
</g>
</svg>
