<svg width="135" height="198" viewBox="0 0 135 198" fill="none" xmlns="http://www.w3.org/2000/svg">
<path d="M67.4539 129.648C72.2522 129.648 76.1278 125.067 76.1278 119.386C76.1278 113.706 72.2522 109.124 67.4539 109.124C62.6555 109.124 58.7799 113.706 58.7799 119.386C58.7799 125.067 62.6555 129.648 67.4539 129.648Z" fill="white"/>
<path d="M32.8503 78.522V47.8279C32.8503 25.1967 48.3527 6.87183 67.4539 6.87183C86.555 6.87183 102.057 25.1967 102.057 47.8279V78.522M67.4539 129.648C72.2522 129.648 76.1278 125.067 76.1278 119.386C76.1278 113.706 72.2522 109.124 67.4539 109.124C62.6555 109.124 58.7799 113.706 58.7799 119.386C58.7799 125.067 62.6555 129.648 67.4539 129.648ZM67.4539 129.648V138.6M20.7621 78.522H114.238C121.897 78.522 128.079 85.8519 128.079 94.9227V166.573C128.079 180.042 118.759 191.128 107.317 191.128H27.6828C16.2406 191.128 6.92072 180.042 6.92072 166.573V94.9227C6.92072 85.9435 13.1955 78.522 20.7621 78.522Z" stroke="white" stroke-width="4" stroke-linecap="round" stroke-linejoin="round"/>
</svg>
