<svg width="225" height="234" viewBox="0 0 225 234" fill="none" xmlns="http://www.w3.org/2000/svg">
<path fill-rule="evenodd" clip-rule="evenodd" d="M24.8398 170.868C24.8393 170.868 24.8402 170.868 24.8398 170.868V170.868Z" fill="white"/>
<path fill-rule="evenodd" clip-rule="evenodd" d="M24.8398 170.868C24.8393 170.868 24.8402 170.868 24.8398 170.868V170.868ZM221.506 97.6169C221.527 97.6085 221.549 97.5999 221.571 97.5911C221.55 97.5994 221.527 97.6087 221.506 97.6169Z" fill="white"/>
<path fill-rule="evenodd" clip-rule="evenodd" d="M140.241 4.87168C130.239 1.78293 110.02 -0.955817 100.205 0.321183C85.3765 1.24518 70.8273 4.77743 57.226 10.7554C56.9324 10.8811 56.5959 11.0176 56.2309 11.1656C52.7479 12.578 46.6743 15.0408 50.5093 19.2372C52.2827 21.1776 57.99 18.3131 60.9874 16.8087C61.5039 16.5494 61.94 16.3306 62.2615 16.1837C67.2678 13.8966 72.0837 12.6223 77.1659 11.2775C78.294 10.979 79.4352 10.677 80.5945 10.3597C92.4335 7.11919 103.169 7.22993 115.341 7.49493C127.842 8.36443 139.16 11.0997 150.787 15.7279C152.018 16.2177 153.407 16.8676 154.832 17.5343C157.403 18.7375 160.091 19.9953 162.174 20.4647C163.759 19.6727 166.746 17.3027 165.027 15.7132C160.447 11.4781 153.113 9.11576 146.46 6.97275C144.272 6.26827 142.159 5.58749 140.241 4.87168ZM29.2018 34.8604C28.4958 33.0819 27.6128 32.7042 25.8238 32.4562C20.1785 34.6727 3.58678 57.0079 0.745031 63.6747C0.324281 64.6622 -0.301714 66.4394 0.166036 67.5054C0.530036 68.3347 1.21278 68.7807 2.04903 69.0609C2.50186 69.2125 2.94503 69.3293 3.39982 69.4492L3.47578 69.4692C6.29403 68.6682 6.89728 67.5087 8.22903 64.9477C13.4333 54.9389 20.872 46.3344 28.8218 38.4212C29.3953 37.8494 29.5168 35.6539 29.2018 34.8604ZM98.6405 19.8229C101.18 19.5319 106.352 19.5953 109.303 19.6315L109.747 19.6369C136.185 20.1624 161.349 31.0939 179.778 50.0589C189.72 60.2774 196.898 72.3209 201.543 85.7202C201.641 85.9968 201.742 86.2782 201.845 86.5636C202.743 89.0621 203.75 91.8626 203.948 94.4162C204.09 96.2692 201.908 97.7149 200.218 97.4314C199.34 97.2839 198.005 96.9904 197.588 96.1122C196.759 94.3657 196.25 92.5004 195.742 90.6345C195.352 89.2042 194.963 87.773 194.428 86.3944C190.388 75.6692 185.783 67.8309 178.46 59.0037C172.08 51.4592 164.479 45.0377 155.974 40.0062C131.025 25.0784 100.648 22.2864 73.3953 32.4162C70.8347 33.3713 67.7558 34.8695 65.0402 36.191C64.4647 36.471 63.9055 36.7431 63.371 37.0004C62.2868 37.5224 61.154 38.2151 59.9945 38.9241C58.0273 40.1269 55.9833 41.3768 53.9695 41.9194C53.2738 42.1069 52.807 41.9887 52.224 41.5569C51.3645 40.9202 50.4763 39.9579 50.3305 38.8564C50.177 38.1307 50.657 36.7479 51.25 36.2679C62.8168 26.9032 84.6585 20.7999 98.6405 19.8229ZM194.117 37.0532L194.124 37.0607C194.381 37.3542 194.634 37.6421 194.88 37.9114C201.78 45.4459 207.85 53.8289 212.638 62.8629C216.555 70.2532 219.655 78.1527 221.998 86.1762C222.152 86.7097 222.36 87.3289 222.585 87.9986C223.433 90.5228 224.524 93.7699 223.918 95.8569C223.656 96.7588 222.485 97.2263 221.571 97.5911C221.496 97.6211 221.42 97.6513 221.349 97.6801L221.269 97.7128L221.24 97.7247C216.919 97.7519 216.582 95.011 216.206 91.9465C216.05 90.6761 215.887 89.3502 215.43 88.1427C214.797 86.4683 214.219 84.7347 213.639 82.9971L213.634 82.9801L213.491 82.5521C212.75 80.3339 212 78.117 211.123 76.0167C206.658 65.5037 200.738 55.6702 193.535 46.8044C192.835 45.9411 191.871 45.0117 190.864 44.0409C187.26 40.5675 183.107 36.5647 188.54 33.1674C190.834 33.3066 192.585 35.3041 194.117 37.0532Z" fill="white"/>
<path fill-rule="evenodd" clip-rule="evenodd" d="M165.216 73.3837C189.15 111.322 195.28 149.868 151.81 217.437C150.797 218.274 149.758 219.416 148.68 220.602C146.129 223.407 143.975 225.033 140.184 226.282C136.522 227.488 134.137 222.048 134.5 219.549C135.406 217.584 137.33 214.542 139.794 210.644C148.344 197.122 163.4 173.31 165.018 148.521C165.207 145.625 165.468 142.463 165.74 139.163C166.88 125.319 168.222 109.035 165.334 99.6722C160.449 84.3997 149.826 71.7412 135.269 64.6172C119.96 57.0624 102.264 55.9517 86.1305 61.5324C63.34 69.3429 47.5673 89.7669 45.3383 114.031C45.1914 115.52 45.1659 117.086 45.1402 118.667C45.0978 121.274 45.0547 123.92 44.4658 126.313C41.7058 137.531 34.2815 146.711 23.4215 151.117C17.79 153.402 12.0445 149.827 14.6483 143.359C15.2688 141.818 17.8493 140.471 20.1513 139.27C21.4837 138.575 22.723 137.928 23.4353 137.32C26.6418 135.013 29.3113 131.376 31.0213 127.825C32.632 124.481 32.7638 120.472 32.8916 116.583C32.9478 114.871 33.0034 113.181 33.184 111.582C36.1205 85.5237 52.604 62.2732 76.9133 52.0072C78.5461 51.3177 80.3052 50.7529 82.0715 50.1857C83.7055 49.661 85.3456 49.1343 86.8978 48.5052C91.845 46.4997 88.8158 41.6754 84.8063 42.0112C84.3485 42.1474 83.8616 42.2899 83.3567 42.4377C81.0684 43.1076 78.4128 43.8851 76.4478 44.6642C58.9783 51.5417 44.4808 64.3394 35.489 80.8207C30.4973 90.0179 28.0953 99.2552 26.498 109.542C26.2489 111.146 26.1252 113.022 25.9962 114.978C25.7028 119.428 25.3823 124.288 23.4958 127.283C21.4547 130.524 18.6028 132.024 15.8403 133.478C12.1776 135.404 8.67204 137.249 7.42178 142.957C6.89378 145.407 6.98453 147.95 7.68503 150.357C10.005 158.144 18.493 160.264 25.548 157.802C35.069 154.479 43.2348 146.598 47.7685 137.722C51.5431 130.332 52.0812 122.714 52.6401 114.804C52.7448 113.321 52.8503 111.828 52.978 110.324C53.3158 106.346 54.548 103.131 55.977 99.4652C74.2148 52.6807 142.078 53.4979 158.497 101.27C162.861 113.911 161.58 125.291 159.886 140.328L159.757 141.478C157.352 162.873 154.092 175.548 143 194C139.306 200.145 132.363 208.962 132.363 208.962C132.363 208.962 127.29 215.817 127.348 219.549C127.55 232.679 141.972 237.427 150.921 228.409C151.547 227.774 152.167 227.134 152.78 226.489C154.135 225.022 154.697 224.334 155.811 222.682C194.415 169.719 203.043 115.148 172.93 71.9902C161.874 56.1447 148.982 48.1187 132.886 42.9342C125.251 40.4169 113.855 38.2677 105.894 39.2504C104.851 39.8057 103.627 40.4944 103.469 41.7392C102.944 45.86 107.779 45.9118 110.76 45.9437C111.272 45.9492 111.729 45.9541 112.095 45.9789C115.405 46.2174 118.7 46.6397 121.963 47.2434C138.401 50.2142 155.022 60.1894 165.216 73.3837ZM37.3023 47.4982C44.9763 46.8017 42.1345 53.3102 38.3693 56.1449C37.8919 56.5045 36.8216 57.7764 36.0568 58.6852C35.8027 58.9872 35.5822 59.2491 35.4285 59.4242C20.0253 76.9644 13.873 97.8809 13.568 120.9C12.7695 121.728 12.1913 122.212 11.3125 122.943C8.68502 123.191 8.44365 122.903 6.82508 120.975L6.78979 120.933C6.23202 115.813 7.15909 109.058 7.94319 103.345C8.11146 102.119 8.27329 100.94 8.41229 99.8359C8.71216 97.4562 9.49187 94.8773 10.2274 92.4445C10.489 91.5795 10.745 90.7328 10.9718 89.9202C14.5668 77.0399 21.496 64.9572 30.095 54.7699C32.0368 52.4694 34.8518 49.2674 37.3023 47.4982ZM105.518 77.0749C114.136 76.3909 126.342 80.3877 133.09 85.8677C137.062 89.2569 142.516 93.9552 143.742 99.1614C144.11 100.728 142.586 103.679 141.009 103.408C138.329 102.948 136.547 100.369 134.726 97.7335C133.562 96.0493 132.383 94.3422 130.943 93.1507C122.592 86.2407 113.677 83.1654 102.851 84.2544C89.1515 85.2652 75.31 97.1632 72.6615 110.732C71.9578 114.338 71.6441 117.885 71.3309 121.426C70.8425 126.949 70.3553 132.458 68.3918 138.153C65.2625 147.229 61.7578 153.074 55.516 160.297C49.736 167.399 39.2038 173.564 30.6405 176.497C30.1853 176.63 29.5814 176.837 28.8802 177.078C24.6706 178.525 16.9377 181.182 16.5815 176.187C16.331 172.674 21.0065 171.681 24.8398 170.868C26.1309 170.594 27.3271 170.34 28.2068 170.017C37.9223 166.449 46.6095 160.652 52.9498 152.474C59.1945 144.396 63.1003 134.758 64.241 124.611C64.4869 122.581 64.5724 120.471 64.6576 118.367C64.7394 116.348 64.8209 114.333 65.044 112.401C65.9423 104.626 70.407 96.4339 75.6838 90.7309C83.6063 82.1689 93.9478 77.6354 105.518 77.0749ZM110.355 121.517C110.644 118.516 110.886 116.001 106.905 114.984C104.88 115.731 104.644 115.972 103.359 117.73C103.212 122.062 102.63 132.201 101.709 136.594C97.9553 154.507 88.8133 172.839 75.442 185.369C67.118 193.187 57.5283 199.534 47.081 204.144C46.8496 204.248 46.6132 204.356 46.3724 204.465C42.8091 206.087 38.3001 208.139 35.145 204.662C32.7373 202.032 32.5648 197.704 35.6633 195.507C37.3779 194.291 39.5787 193.46 41.7121 192.654C42.7625 192.257 43.7965 191.867 44.748 191.439C66.9435 181.467 81.0533 163.557 87.7655 140.552C86.758 138.334 85.4695 136.516 82.7418 137.643C81.2882 138.244 80.1279 141.637 79.2924 144.08C79.0294 144.849 78.7985 145.524 78.6008 145.988C72.1165 163.232 59.0863 177.219 42.3443 184.907C41.0159 185.509 39.6812 186.006 38.3797 186.491C33.7489 188.216 29.5401 189.784 27.544 195.367C24.9943 202.297 27.9433 210.269 35.233 212.702C39.5123 214.359 43.509 213.074 47.5705 211.479C84.0608 197.137 108.586 162.519 110.207 123.426C110.233 122.775 110.295 122.136 110.355 121.517ZM115.927 97.9859C112.847 96.6817 109.086 96.3804 105.762 96.5762L105.563 96.5874L105.425 96.5951C102.613 96.7534 100.46 96.8909 97.757 98.0722C88.5335 102.103 83.6373 110.907 84.1603 120.866C86.1535 123.044 87.892 124.241 90.305 121.609C90.487 121.41 90.6663 121.209 90.8428 121.005C91.4128 115.719 92.4368 109.808 96.7905 106.741C108.657 98.3819 123.379 105.759 122.568 120.632C122.509 121.713 122.456 122.764 122.404 123.793C122.005 131.72 121.674 138.306 119.196 146.342C113.433 170.819 99.0245 192.649 79.0015 207.849C78.7486 208.041 78.4939 208.236 78.2374 208.432C76.889 209.462 75.4913 210.53 74.0483 211.424C69.4233 214.497 64.695 217.332 59.7053 219.762C59.5906 219.818 59.4759 219.874 59.3612 219.93C58.6829 220.259 58.0061 220.588 57.353 220.967L57.1893 221.247C56.5843 222.294 55.9623 223.609 56.3358 224.844C56.6055 225.737 57.1958 226.794 58.0535 227.242C58.9448 227.707 60.0093 227.472 60.8963 227.129C65.0438 225.524 71.7435 221.387 75.6035 218.872C96.6558 205.162 110.659 187.909 120.58 164.922C125.893 152.609 133.263 123.336 128.35 110.85C126.053 105.013 121.741 100.448 115.927 97.9859ZM144.357 115.011C144.959 114.927 145.627 114.856 146.231 114.93C147.133 115.042 148.043 115.543 148.55 116.304C151.073 120.085 146.991 143.963 145.77 149.312C140.083 174.744 127.425 198.087 109.216 216.729C105.926 220.117 100.42 225.599 96.428 228.099C91.7955 229.637 89.6965 224.574 94.8688 220.307C125.519 195.024 142.11 156.664 142.546 117.293C142.559 116.159 143.526 115.537 144.357 115.011Z" fill="white"/>
<path fill-rule="evenodd" clip-rule="evenodd" d="M203.135 114.753C203.813 114.664 204.455 114.591 205.13 114.744C205.91 114.921 206.678 115.342 207.06 116.074C207.924 117.717 207.948 125.115 207.594 131.5C206.068 165.566 200.939 179.89 195.833 194.15C194.358 198.27 192.884 202.385 191.5 206.969C189.654 209.54 188.295 210.854 185 210.5C182.652 209.83 182.035 206.969 182.035 206.969C181.909 206.266 183.165 203.274 185.089 198.691C191.292 183.916 204.436 152.609 200.545 128.202C200.58 127.026 200.584 125.807 200.588 124.578C200.597 122.068 200.606 119.506 200.873 117.143C200.989 116.106 202.198 115.343 203.049 114.808L203.135 114.753Z" fill="white"/>
</svg>
