<svg width="199" height="184" viewBox="0 0 199 184" fill="none" xmlns="http://www.w3.org/2000/svg">
<path d="M33.4496 75.6859V51.8359C33.4496 29.8885 48.7186 12.0859 67.5322 12.0859C86.3458 12.0859 101.615 29.8885 101.615 51.8359V75.6859M33.4496 75.6859H26.633C19.1349 75.6859 13 82.8206 13 91.5859V155.186C13 163.951 19.1349 171.086 26.633 171.086H108.431C112.473 171.086 116.119 169.013 118.621 165.728M33.4496 75.6859H101.615M101.615 75.6859H108.431C114.065 75.6859 118.929 79.7138 121 85.435M47.0826 75.6859V46.0603C47.0826 34.8488 56.2849 25.6757 67.5322 25.6757C78.7794 25.6757 87.9818 34.8488 87.9818 46.0603V75.6859M74.3487 118.901V134.394H60.7157V118.901C54.1718 115.164 51.9223 106.942 55.6714 100.419C57.5801 97.0898 60.7838 94.7116 64.6011 93.8962C71.9629 92.2654 79.2566 96.8859 80.8926 104.224C81.0971 105.176 81.2334 106.195 81.2334 107.146C81.2334 111.971 78.6431 116.455 74.4169 118.833L74.3487 118.901Z" stroke="white" stroke-width="4" stroke-miterlimit="10" stroke-linecap="round" stroke-linejoin="round"/>
<path fill-rule="evenodd" clip-rule="evenodd" d="M117.535 144.74C117.535 144.74 117.535 144.74 117.535 144.74V144.74Z" fill="white"/>
<path fill-rule="evenodd" clip-rule="evenodd" d="M117.535 144.74C117.535 144.74 117.535 144.74 117.535 144.74V144.74ZM185.111 119.595C185.118 119.592 185.126 119.589 185.133 119.586C185.126 119.589 185.118 119.592 185.111 119.595Z" fill="white"/>
<path fill-rule="evenodd" clip-rule="evenodd" d="M157.188 87.7583C153.751 86.698 146.803 85.7578 143.431 86.1962C138.336 86.5134 133.337 87.7259 128.663 89.778C128.562 89.8211 128.447 89.868 128.321 89.9188C127.125 90.4036 125.038 91.2491 126.355 92.6896C126.965 93.3556 128.926 92.3723 129.956 91.8559C130.133 91.7669 130.283 91.6918 130.393 91.6414C132.114 90.8563 133.768 90.4188 135.515 89.9572C135.902 89.8547 136.294 89.7511 136.693 89.6421C140.761 88.5298 144.45 88.5678 148.632 88.6588C152.927 88.9572 156.816 89.8962 160.811 91.4849C161.234 91.653 161.712 91.8761 162.201 92.105C163.085 92.518 164.008 92.9498 164.724 93.1109C165.269 92.8391 166.295 92.0255 165.704 91.4799C164.131 90.0261 161.611 89.2151 159.324 88.4795C158.573 88.2377 157.847 88.004 157.188 87.7583ZM119.034 98.0526C118.791 97.4421 118.488 97.3124 117.873 97.2273C115.933 97.9882 110.232 105.655 109.256 107.944C109.111 108.283 108.896 108.893 109.057 109.259C109.182 109.543 109.417 109.697 109.704 109.793C109.86 109.845 110.012 109.885 110.168 109.926L110.194 109.933C111.163 109.658 111.37 109.26 111.828 108.381C113.616 104.945 116.172 101.991 118.903 99.2749C119.1 99.0787 119.142 98.325 119.034 98.0526ZM142.894 92.8906C143.766 92.7907 145.543 92.8125 146.557 92.8249L146.71 92.8268C155.794 93.0072 164.441 96.7597 170.773 103.27C174.189 106.778 176.655 110.912 178.251 115.511C178.285 115.606 178.32 115.703 178.355 115.801C178.664 116.659 179.01 117.62 179.078 118.497C179.127 119.133 178.377 119.629 177.796 119.532C177.495 119.481 177.036 119.38 176.892 119.079C176.607 118.479 176.433 117.839 176.258 117.198C176.124 116.707 175.99 116.216 175.807 115.743C174.418 112.061 172.836 109.371 170.32 106.34C168.128 103.751 165.516 101.546 162.594 99.819C154.021 94.6947 143.583 93.7363 134.219 97.2136C133.339 97.5414 132.281 98.0557 131.348 98.5093C131.15 98.6055 130.958 98.6989 130.775 98.7872C130.402 98.9664 130.013 99.2042 129.615 99.4475C128.939 99.8605 128.236 100.29 127.544 100.476C127.305 100.54 127.145 100.5 126.945 100.351C126.649 100.133 126.344 99.8025 126.294 99.4243C126.241 99.1752 126.406 98.7005 126.61 98.5358C130.584 95.3211 138.089 93.226 142.894 92.8906ZM175.7 98.8053L175.702 98.8079C175.791 98.9087 175.877 99.0075 175.962 99.0999C178.333 101.686 180.419 104.564 182.064 107.665C183.41 110.202 184.475 112.914 185.28 115.668C185.333 115.851 185.404 116.064 185.482 116.294C185.773 117.16 186.148 118.275 185.94 118.991C185.85 119.301 185.447 119.461 185.133 119.586C185.107 119.597 185.081 119.607 185.057 119.617L185.029 119.628L185.02 119.632C183.535 119.642 183.419 118.701 183.29 117.649C183.236 117.213 183.18 116.758 183.023 116.343C182.806 115.768 182.607 115.173 182.408 114.577L182.406 114.571L182.357 114.424C182.102 113.662 181.844 112.901 181.543 112.18C180.009 108.572 177.975 105.196 175.5 102.153C175.259 101.856 174.928 101.537 174.582 101.204C173.344 100.012 171.917 98.6376 173.784 97.4715C174.572 97.5192 175.173 98.2049 175.7 98.8053Z" fill="white"/>
<path fill-rule="evenodd" clip-rule="evenodd" d="M165.769 111.277C173.993 124.3 176.099 137.532 161.163 160.726C160.815 161.014 160.458 161.406 160.087 161.813C159.211 162.776 158.471 163.334 157.168 163.763C155.91 164.177 155.09 162.309 155.215 161.452C155.526 160.777 156.187 159.733 157.034 158.395C159.972 153.753 165.145 145.579 165.701 137.069C165.766 136.075 165.856 134.99 165.949 133.857C166.341 129.105 166.802 123.515 165.81 120.301C164.131 115.058 160.481 110.713 155.479 108.267C150.219 105.674 144.138 105.293 138.595 107.208C130.764 109.89 125.344 116.901 124.579 125.23C124.528 125.741 124.519 126.279 124.51 126.821C124.496 127.716 124.481 128.624 124.279 129.446C123.33 133.297 120.779 136.448 117.048 137.96C115.113 138.745 113.139 137.518 114.033 135.297C114.246 134.768 115.133 134.306 115.924 133.894C116.382 133.655 116.808 133.433 117.053 133.224C118.154 132.432 119.072 131.184 119.659 129.965C120.213 128.817 120.258 127.441 120.302 126.106C120.321 125.518 120.34 124.938 120.402 124.389C121.411 115.444 127.075 107.463 135.428 103.939C135.989 103.702 136.593 103.508 137.2 103.313C137.762 103.133 138.325 102.952 138.859 102.736C140.559 102.048 139.518 100.392 138.14 100.507C137.983 100.554 137.815 100.603 137.642 100.654C136.856 100.884 135.943 101.151 135.268 101.418C129.265 103.779 124.284 108.172 121.194 113.83C119.479 116.987 118.654 120.158 118.105 123.689C118.019 124.239 117.977 124.884 117.932 125.555C117.832 127.082 117.722 128.751 117.073 129.779C116.372 130.891 115.392 131.406 114.443 131.905C113.184 132.567 111.98 133.2 111.55 135.159C111.369 136 111.4 136.873 111.641 137.7C112.438 140.373 115.354 141.101 117.778 140.255C121.05 139.115 123.856 136.409 125.414 133.362C126.711 130.825 126.895 128.21 127.087 125.495C127.123 124.986 127.16 124.474 127.204 123.957C127.32 122.592 127.743 121.488 128.234 120.23C134.501 104.17 157.819 104.45 163.46 120.849C164.96 125.189 164.52 129.095 163.938 134.257L163.893 134.652C163.067 141.996 161.947 146.347 158.136 152.681C156.867 154.79 154.481 157.817 154.481 157.817C154.481 157.817 152.738 160.17 152.758 161.452C152.827 165.959 157.782 167.588 160.857 164.493C161.073 164.275 161.285 164.055 161.496 163.834C161.962 163.33 162.155 163.094 162.538 162.527C175.802 144.346 178.767 125.613 168.42 110.798C164.621 105.359 160.191 102.604 154.66 100.824C152.037 99.96 148.121 99.2222 145.386 99.5596C145.027 99.7502 144.607 99.9866 144.552 100.414C144.372 101.828 146.034 101.846 147.058 101.857C147.234 101.859 147.391 101.861 147.517 101.869C148.654 101.951 149.786 102.096 150.907 102.303C156.555 103.323 162.266 106.747 165.769 111.277ZM121.817 102.391C124.454 102.152 123.478 104.386 122.184 105.359C122.02 105.482 121.652 105.919 121.389 106.231C121.302 106.335 121.226 106.425 121.173 106.485C115.881 112.506 113.767 119.686 113.662 127.588C113.388 127.872 113.189 128.038 112.887 128.289C111.984 128.374 111.901 128.275 111.345 127.613L111.333 127.599C111.141 125.842 111.46 123.523 111.729 121.562C111.787 121.141 111.843 120.736 111.891 120.357C111.994 119.54 112.261 118.655 112.514 117.82C112.604 117.523 112.692 117.232 112.77 116.953C114.005 112.532 116.386 108.384 119.341 104.887C120.008 104.097 120.975 102.998 121.817 102.391ZM145.257 112.544C148.218 112.309 152.412 113.681 154.731 115.562C156.095 116.726 157.969 118.338 158.391 120.125C158.517 120.663 157.994 121.676 157.451 121.583C156.531 121.425 155.918 120.54 155.293 119.635C154.893 119.057 154.487 118.471 153.993 118.062C151.123 115.69 148.06 114.634 144.34 115.008C139.633 115.355 134.877 119.44 133.967 124.097C133.725 125.335 133.617 126.553 133.51 127.768C133.342 129.664 133.175 131.555 132.5 133.51C131.425 136.626 130.22 138.632 128.076 141.112C126.09 143.55 122.471 145.666 119.528 146.673C119.372 146.718 119.164 146.79 118.923 146.872C117.477 147.369 114.82 148.281 114.698 146.566C114.611 145.36 116.218 145.02 117.535 144.74C117.979 144.646 118.39 144.559 118.692 144.448C122.03 143.224 125.015 141.234 127.194 138.426C129.34 135.653 130.682 132.345 131.074 128.862C131.158 128.165 131.187 127.441 131.217 126.718C131.245 126.025 131.273 125.334 131.35 124.67C131.658 122.001 133.192 119.189 135.005 117.232C137.728 114.292 141.281 112.736 145.257 112.544ZM146.919 127.8C147.018 126.769 147.101 125.906 145.733 125.557C145.037 125.813 144.956 125.896 144.515 126.499C144.464 127.987 144.264 131.467 143.948 132.975C142.658 139.124 139.517 145.417 134.922 149.718C132.062 152.402 128.767 154.581 125.177 156.163C125.098 156.199 125.017 156.236 124.934 156.274C123.709 156.83 122.16 157.535 121.076 156.341C120.249 155.438 120.189 153.953 121.254 153.198C121.843 152.781 122.599 152.496 123.333 152.219C123.693 152.083 124.049 151.949 124.376 151.802C132.002 148.379 136.85 142.231 139.157 134.334C138.811 133.572 138.368 132.948 137.431 133.335C136.931 133.542 136.532 134.706 136.245 135.545C136.155 135.809 136.076 136.041 136.008 136.2C133.78 142.119 129.302 146.921 123.55 149.56C123.093 149.766 122.635 149.937 122.188 150.103C120.596 150.696 119.15 151.234 118.464 153.15C117.588 155.529 118.601 158.266 121.106 159.101C122.577 159.67 123.95 159.229 125.346 158.681C137.884 153.758 146.311 141.875 146.868 128.455C146.877 128.232 146.898 128.012 146.919 127.8ZM148.833 119.722C147.775 119.274 146.483 119.171 145.341 119.238L145.272 119.242L145.225 119.245C144.259 119.299 143.519 119.346 142.59 119.752C139.421 121.135 137.738 124.157 137.918 127.576C138.603 128.324 139.2 128.735 140.029 127.831C140.092 127.763 140.154 127.694 140.214 127.624C140.41 125.809 140.762 123.78 142.258 122.727C146.335 119.858 151.394 122.39 151.115 127.496C151.095 127.867 151.077 128.228 151.059 128.581C150.922 131.302 150.808 133.563 149.957 136.321C147.976 144.724 143.025 152.217 136.145 157.435C136.059 157.501 135.971 157.568 135.883 157.635C135.42 157.989 134.939 158.355 134.443 158.662C132.854 159.717 131.23 160.69 129.515 161.524C129.476 161.544 129.436 161.563 129.397 161.582C129.164 161.695 128.931 161.808 128.707 161.938L128.651 162.034C128.443 162.394 128.229 162.845 128.357 163.269C128.45 163.576 128.653 163.939 128.948 164.092C129.254 164.252 129.62 164.171 129.924 164.054C131.349 163.503 133.652 162.082 134.978 161.219C142.212 156.513 147.023 150.59 150.432 142.699C152.258 138.473 154.79 128.424 153.102 124.138C152.313 122.134 150.831 120.567 148.833 119.722ZM158.602 125.566C158.809 125.537 159.038 125.513 159.246 125.539C159.556 125.577 159.868 125.749 160.043 126.01C160.91 127.308 159.507 135.505 159.088 137.341C157.133 146.071 152.784 154.084 146.527 160.484C145.397 161.646 143.505 163.528 142.133 164.387C140.542 164.914 139.82 163.176 141.598 161.712C152.129 153.033 157.83 139.865 157.98 126.349C157.984 125.96 158.317 125.747 158.602 125.566Z" fill="white"/>
<path fill-rule="evenodd" clip-rule="evenodd" d="M178.799 125.478C179.031 125.447 179.252 125.422 179.484 125.475C179.752 125.535 180.016 125.68 180.147 125.931C180.444 126.495 180.452 129.035 180.331 131.226C179.806 142.92 178.044 147.838 176.289 152.732C175.783 154.147 175.276 155.559 174.801 157.133C174.166 158.015 173.699 158.467 172.567 158.345C171.76 158.115 171.548 157.133 171.548 157.133C171.505 156.892 171.937 155.865 172.598 154.291C174.729 149.219 179.245 138.472 177.909 130.094C177.921 129.691 177.922 129.272 177.923 128.85C177.926 127.989 177.93 127.109 178.021 126.298C178.061 125.942 178.477 125.68 178.769 125.496L178.799 125.478Z" fill="white"/>
</svg>
