<svg width="135" height="198" viewBox="0 0 135 198" fill="none" xmlns="http://www.w3.org/2000/svg">
<path d="M67.4538 129.648C72.2522 129.648 76.1278 125.067 76.1278 119.386C76.1278 113.705 72.2522 109.124 67.4538 109.124C62.6555 109.124 58.7798 113.705 58.7798 119.386C58.7798 125.067 62.6555 129.648 67.4538 129.648Z" fill="white"/>
<path d="M32.8503 78.5217V47.8276C32.8503 25.1964 48.3526 6.87158 67.4538 6.87158C86.555 6.87158 102.057 25.1964 102.057 47.8276V78.5217M67.4538 129.648C72.2522 129.648 76.1278 125.067 76.1278 119.386C76.1278 113.705 72.2522 109.124 67.4538 109.124C62.6555 109.124 58.7798 113.705 58.7798 119.386C58.7798 125.067 62.6555 129.648 67.4538 129.648ZM67.4538 129.648V138.6M20.7621 78.5217H114.238C121.897 78.5217 128.079 85.8517 128.079 94.9225V166.573C128.079 180.041 118.759 191.128 107.317 191.128H27.6828C16.2405 191.128 6.92065 180.041 6.92065 166.573V94.9225C6.92065 85.9433 13.1954 78.5217 20.7621 78.5217Z" stroke="white" stroke-width="4" stroke-linecap="round" stroke-linejoin="round"/>
</svg>
